<?xml version="1.0" encoding="UTF-8"?>
<!-- Full release candidate: geometry and fills are preserved; approved semantic occlusion corrections are applied against the v1.0 PNG reference. -->
<svg xmlns="http://www.w3.org/2000/svg" xmlns:inkscape="http://www.inkscape.org/namespaces/inkscape" version="1.1" width="512" height="512" viewBox="0 0 1254 1254" role="img" aria-labelledby="t10-web-title t10-web-desc" preserveAspectRatio="xMidYMid meet" lang="zh-CN" xml:lang="zh-CN" data-character-id="T10" data-artwork-version="1.0" data-svg-build="1.0-rc3" data-background-policy="transparent-master-light-background-preferred" class="t10-motion character-motion" data-motion-driver="root-state">
  <title id="t10-web-title">T10 煽动家｜网页展示版</title>
  <desc id="t10-web-desc">一个张嘴演说的煽动家把扩音器贴近嘴边，另一手向外切分，尖锐声浪同时伸向左右。</desc>
  <metadata data-character-id="T10" data-official-name="煽动家" data-artwork-version="1.0" data-svg-build="1.0-rc3" data-status="release-candidate-web-derivative" data-background="transparent" data-source-build="v0.3" data-reference-raster="02_角色资产_v1.0_语义定稿/角色单图/T10_煽动家_v1.0.png" data-method="reference-raster-audited-semantic-occlusion" data-derivative="web-card-optical-crop"/>
  <defs>
    <mask id="t10-static-base-mask" maskUnits="userSpaceOnUse" x="30" y="90" width="1190" height="1120">
      <rect x="30" y="90" width="1190" height="1120" fill="white"/>
      <rect x="275" y="500" width="255" height="235" rx="70" fill="black"/>
      <path d="M50 665 H340 V850 H50 Z" fill="black"/>
      <path d="M955 560 H1200 V780 H955 Z" fill="black"/>
    </mask>
    <clipPath id="t10-megaphone-clip" clipPathUnits="userSpaceOnUse"><rect x="275" y="500" width="255" height="235" rx="70"/></clipPath>
    <clipPath id="t10-left-wave-clip" clipPathUnits="userSpaceOnUse"><path d="M50 665 H340 V850 H50 Z"/></clipPath>
    <clipPath id="t10-right-arm-clip" clipPathUnits="userSpaceOnUse"><path d="M935 570 H985 V785 H875 V650 H905 V625 L935 605 Z"/></clipPath>
    <clipPath id="t10-right-wave-clip" clipPathUnits="userSpaceOnUse"><path d="M955 560 H1200 V780 H955 Z"/></clipPath>
  </defs>
  <g id="t10-web-artwork" class="t10-body-result t10-motion__body" data-role="artwork">
    <g id="t10-web-layer-001" mask="url(#t10-static-base-mask)" data-module="shared-structure" data-component="shared-structure" data-part="shared-structure source layer 001" data-color-family="purple" data-source-layer="001" inkscape:groupmode="layer" inkscape:label="001 · shared-structure · shared-structure source layer 001">
      <path id="t10-web-shape-001" d="M0 0 C1.31 0.28 2.63 0.56 3.98 0.84 C13.69 3 22.19 6.41 31 11 C32.17 11.6 33.35 12.19 34.56 12.81 C51.79 22.05 66.17 36.07 76 53 C76 53.66 76 54.32 76 55 C77.08 54.94 78.17 54.88 79.29 54.82 C84.93 54.83 90.06 56.35 95.44 57.94 C96.49 58.25 97.55 58.56 98.63 58.88 C112.37 63.13 124.2 69.43 135 79 C135.68 79.54 136.36 80.08 137.06 80.63 C157.59 97.23 164.56 123.69 168.21 148.57 C168.4 149.82 168.59 151.08 168.79 152.38 C168.95 153.51 169.11 154.64 169.28 155.8 C170.78 162.45 173.58 165.96 179 170 C183.18 172.09 188.45 171.44 193 171 C196.97 169.02 198.55 167.67 201 164 C201.66 164 202.32 164 203 164 C205.96 169.91 204.68 180.19 203.16 186.44 C200.51 193.28 195.84 202.58 189 206 C191 210 191 210 193.69 212.06 C200.58 218.17 206.56 227.81 208 237 C208.78 250.17 208.52 262.52 199.71 273.18 C191.31 282.14 191.31 282.14 185 283 C185.33 284.32 185.66 285.64 186 287 C187.23 299.36 185.12 310.72 177.88 321.02 C170.57 329.47 160.58 337.87 149 339 C145.66 339.07 142.34 339.06 139 339 C138.63 340.32 138.26 341.64 137.88 343 C134.36 353.46 126.6 360.29 117 365.25 C110.09 368.67 103.76 370.22 96.06 370.62 C94.73 370.7 93.4 370.77 92.04 370.85 C91.03 370.9 90.03 370.95 89 371 C89.87 371.54 90.73 372.09 91.62 372.64 C92.74 373.36 93.85 374.08 95 374.81 C95.56 375.17 95.56 375.17 98.38 376.96 C99.24 377.63 100.11 378.31 101 379 C101 379.99 101 380.98 101 382 C100.67 382.16 100.67 382.16 99 383 C136.62 383 174.24 383 213 383 C213.33 382.01 213.66 381.02 214 380 C218.61 379.83 223.21 379.7 227.82 379.62 C229.39 379.58 230.96 379.53 232.52 379.47 C245.43 378.98 245.43 378.98 249.13 381.38 C251.92 385.02 252.25 388.48 253 393 C248.05 393.66 243.1 394.32 238 395 C233.49 411.36 234.28 428.23 236 445 C242.6 445 249.2 445 256 445 C255.77 454.61 254.09 463.91 247 471 C244.96 471.41 244.96 471.41 242.45 471.63 C241.99 471.67 241.99 471.67 239.66 471.89 C238.68 471.97 237.7 472.04 236.69 472.12 C235.68 472.21 234.68 472.3 233.64 472.38 C227.57 472.87 221.58 473.12 215.49 473.01 C210.67 473 205.87 473.21 201.06 473.44 C200.16 473.48 199.26 473.52 198.33 473.56 C197.47 473.6 196.61 473.64 195.72 473.68 C194.96 473.72 194.19 473.76 193.4 473.79 C191 474 191 474 188.37 474.48 C183.7 475.2 179.03 475.43 174.31 475.68 C173.27 475.74 172.23 475.8 171.15 475.86 C167.77 476.06 164.38 476.25 161 476.44 C156.36 476.7 151.73 476.97 147.09 477.23 C145.96 477.3 144.82 477.37 143.65 477.43 C133.44 478.02 123.24 478.69 113.05 479.44 C106.35 479.92 99.71 480.1 93 480 C98.6 510.63 106.38 539.71 116.37 569.22 C124.54 593.35 132.62 617.52 140.5 641.75 C140.87 642.87 141.24 643.98 141.61 645.13 C141.94 646.14 142.26 647.14 142.59 648.17 C142.87 649.02 143.14 649.87 143.43 650.74 C144 653 144 653 144 657 C138.53 659.46 133.02 661.39 127.31 663.19 C126.47 663.46 125.63 663.73 124.76 664.01 C121.01 665.2 117.96 666 114 666 C114.3 666.71 114.6 667.42 114.91 668.15 C115.99 670.96 116.71 673.68 117.37 676.61 C117.49 677.15 117.49 677.15 118.11 679.87 C118.23 680.44 118.23 680.44 118.88 683.31 C119.41 685.67 119.95 688.03 120.48 690.39 C120.61 690.96 120.61 690.96 121.27 693.84 C122.47 699.02 123.75 704.17 125.09 709.32 C125.74 711.95 126.32 714.61 126.85 717.28 C128.45 724.92 129.52 729.81 135.98 734.45 C142.55 739.49 145.99 748.2 148 756 C148.32 758.82 148.26 761.15 148 764 C145.94 766.06 142.58 765.12 139.83 765.12 C138.8 765.12 137.76 765.12 136.7 765.11 C135.61 765.11 134.53 765.11 133.42 765.11 C129.82 765.11 126.22 765.11 122.62 765.1 C120.13 765.1 117.65 765.09 115.16 765.09 C108.6 765.09 102.04 765.08 95.48 765.07 C88.79 765.06 82.1 765.05 75.41 765.05 C62.27 765.04 49.14 765.02 36 765 C35.05 762 34.1 759 33.14 756 C33.01 755.58 33.01 755.58 32.34 753.46 C30.71 748.32 29.16 743.18 27.69 738 C25.13 729.21 22.23 720.55 19.3 711.88 C15.52 700.68 12.05 689.42 9 678 C2.4 677.67 -4.2 677.34 -11 677 C-12.14 670.33 -13.16 663.72 -14 657 C-24.89 657 -35.78 657 -47 657 C-47.99 660.3 -48.98 663.6 -50 667 C-51.12 670.71 -52.25 674.42 -53.38 678.12 C-53.68 679.13 -53.99 680.14 -54.3 681.18 C-56.03 686.86 -57.78 692.53 -59.56 698.19 C-61.64 704.8 -63.64 711.43 -65.62 718.07 C-76.66 754.98 -76.66 754.98 -80 765 C-118.28 765 -156.56 765 -196 765 C-196 751.86 -193.25 744.63 -184.28 735.16 C-177.77 729 -177.77 729 -175 729 C-174.94 728.43 -174.94 728.43 -174.64 725.55 C-174.06 720.98 -172.98 716.58 -171.81 712.12 C-169.39 702.71 -167.19 693.25 -165.06 683.76 C-163.92 678.75 -162.78 673.83 -161 669 C-162.3 668.94 -163.6 668.88 -164.94 668.81 C-173.85 667.95 -182.54 664.82 -191 662 C-189.77 654.42 -188.03 647.16 -185.81 639.81 C-185.18 637.7 -184.55 635.58 -183.93 633.46 C-183.61 632.39 -183.29 631.32 -182.96 630.22 C-182.03 627.11 -181.13 624 -180.23 620.88 C-176.38 607.51 -172.29 594.24 -168 581 C-168.99 581 -169.98 581 -171 581 C-170.34 574.87 -168.08 569.35 -165.94 563.62 C-165.56 562.6 -165.18 561.58 -164.79 560.53 C-163.87 558.02 -162.94 555.51 -162 553 C-165.31 553.83 -168.32 554.81 -171.5 556 C-182.42 560.08 -193.18 560.49 -204.18 556.33 C-208.91 554.1 -212.96 551.3 -217 548 C-217.65 547.48 -218.3 546.95 -218.96 546.41 C-227.28 538.96 -231.54 527.74 -232.29 516.78 C-232.33 512.77 -232.37 508.77 -232.37 504.77 C-232.37 502.2 -232.41 499.64 -232.45 497.08 C-232.51 488.34 -232.51 479.81 -228 472 C-227.34 471.67 -226.68 471.34 -226 471 C-225.88 471.8 -225.75 472.6 -225.62 473.42 C-223.72 483.58 -219.6 492.28 -211.69 499.19 C-209 501 -209 501 -206 502 C-205.67 499.69 -205.34 497.38 -205 495 C-204.67 494.99 -204.67 494.99 -202.98 494.96 C-199.95 494.88 -196.91 494.78 -193.88 494.69 C-192.83 494.66 -191.78 494.64 -190.7 494.62 C-179.22 494.22 -179.22 494.22 -175 490 C-175.08 488.62 -175.17 487.24 -175.25 485.81 C-175.35 480.68 -173.34 478.84 -170 475 C-169.43 470.25 -169.83 468.34 -172 464 C-171.01 463.34 -170.02 462.68 -169 462 C-167.81 459.38 -167.81 459.38 -167 457 C-165.68 457.33 -164.36 457.66 -163 458 C-163.62 461.86 -164.25 465.71 -164.88 469.56 C-165.05 470.65 -165.22 471.73 -165.4 472.85 C-166.31 478.37 -167.41 483.63 -169 489 C-169.26 490.81 -169.48 492.62 -169.62 494.44 C-169.66 494.87 -169.66 494.87 -169.85 497.06 C-169.9 497.7 -169.95 498.34 -170 499 C-168.87 498.05 -167.73 497.1 -166.56 496.12 C-165.92 495.59 -165.29 495.06 -164.63 494.51 C-163 493 -163 493 -162 491 C-162.14 489.64 -162.29 488.28 -162.44 486.88 C-162.48 483.8 -162.34 482.44 -160.43 479.98 C-159.02 478.67 -157.6 477.37 -156.16 476.08 C-148.28 468.51 -143.95 456.55 -143.56 445.75 C-143.9 439.02 -145.18 433.78 -150.06 429 C-154.4 426.04 -156.68 425.39 -162 426 C-164.67 427.77 -166.69 429.74 -169 432 C-169.37 431.26 -169.74 430.51 -170.12 429.75 C-173.72 424.48 -178.88 422.23 -184.86 420.53 C-191.49 419.41 -198.29 419.79 -205 420 C-205 417.69 -205 415.38 -205 413 C-224.45 418.51 -248.19 425.79 -260 443 C-265.71 449.99 -273.28 454.49 -281 459 C-281.9 459.56 -282.8 460.11 -283.73 460.68 C-294.43 466.26 -310.13 466.06 -321.63 462.9 C-330.07 459.93 -330.07 459.93 -332 458 C-333.6 458.09 -335.2 458.24 -336.79 458.43 C-342.98 459.05 -349.1 459.19 -355.31 459.19 C-355.86 459.19 -355.86 459.19 -358.66 459.19 C-365.38 459.15 -371.73 458.6 -378.35 457.45 C-404.4 454.22 -424.42 461.19 -447.08 473.42 C-452.98 476.57 -458.59 479.07 -465 481 C-465.51 481.19 -465.51 481.19 -468.12 482.13 C-473.9 484.21 -479.13 485.42 -485.25 485.79 C-490.92 486.22 -496.61 487.2 -502 489 C-502 489.66 -502 490.32 -502 491 C-501.23 491.21 -500.46 491.42 -499.67 491.63 C-494.57 493.54 -490.02 496.22 -485.31 498.94 C-484.36 499.48 -483.41 500.01 -482.44 500.57 C-478.47 502.85 -475.26 504.74 -472 508 C-482.07 513.43 -492.21 518.64 -502.55 523.55 C-514.74 529.38 -526.89 535.3 -539.02 541.26 C-542.36 542.9 -545.7 544.53 -549.04 546.17 C-551.21 547.24 -553.38 548.3 -555.55 549.37 C-556.53 549.85 -557.5 550.32 -558.51 550.82 C-559.45 551.28 -560.38 551.74 -561.35 552.21 C-562.27 552.66 -563.18 553.11 -564.13 553.57 C-566.2 554.6 -568.26 555.65 -570.31 556.72 C-571.39 557.28 -572.48 557.84 -573.59 558.41 C-574.58 558.93 -575.57 559.45 -576.58 559.98 C-576.98 560.15 -576.98 560.15 -579 561 C-579.66 560.67 -580.32 560.34 -581 560 C-575.14 554.62 -569.17 549.45 -562.99 544.45 C-559.59 541.67 -556.26 538.81 -552.94 535.94 C-544.5 528.67 -535.79 521.84 -527 515 C-532.44 514.5 -532.44 514.5 -560 512 C-550.79 502.79 -541.37 493.91 -531 486 C-533.19 481.62 -535.44 479.52 -539.06 476.25 C-539.64 475.72 -540.22 475.2 -540.82 474.65 C-544.98 470.88 -549.21 467.17 -553.49 463.52 C-555 462 -555 462 -555 460 C-547.41 456.2 -535.3 459.78 -527.38 460.97 C-523.41 461.56 -519.44 462.13 -515.47 462.69 C-514.67 462.8 -513.87 462.92 -513.05 463.04 C-504.25 464.27 -495.42 465.22 -486.57 466.1 C-485.51 466.21 -484.44 466.31 -483.35 466.42 C-482.89 466.47 -482.89 466.47 -480.57 466.69 C-478.01 467 -475.52 467.46 -473 468 C-473 468.66 -473 469.32 -473 470 C-463.58 467.48 -455.52 463.84 -447.06 459.06 C-424.01 446.1 -400.47 441.25 -374.41 447.27 C-364.44 449.41 -354.14 449.14 -344 449 C-344.66 448.36 -345.32 447.72 -346 447.06 C-353.08 439.84 -358.46 433.08 -363 424 C-363.43 423.23 -363.86 422.47 -364.3 421.68 C-378.67 395.41 -379.93 359.36 -371.85 330.96 C-367.26 315.92 -360.74 301.69 -350 290 C-349.3 289.22 -348.61 288.45 -347.89 287.64 C-338.2 277.37 -325.32 269.17 -310.9 268.73 C-290.54 268.24 -290.54 268.24 -281 274 C-280.07 274.52 -279.15 275.04 -278.2 275.57 C-269.62 280.67 -261.93 286.7 -256.56 295.19 C-252.67 300.99 -248.22 303.08 -242 306 C-240.35 306.85 -238.71 307.7 -237.07 308.56 C-223.15 315.79 -209.14 321.83 -194 326 C-194.33 325.34 -194.66 324.68 -195 324 C-195.14 321 -195.04 318.01 -195 315 C-195.68 315.05 -196.36 315.09 -197.05 315.14 C-207.03 315.53 -213.71 313.26 -221.31 306.75 C-228.67 299.69 -233.67 291.68 -234.18 281.32 C-234.19 277.87 -234.13 274.44 -234 271 C-235.32 270.67 -236.64 270.34 -238 270 C-248.66 266.59 -255.3 258.44 -260.62 248.99 C-265.63 238.1 -265.99 224.18 -261.94 212.88 C-256.72 201.36 -247.8 193.14 -237.69 185.81 C-231.7 181.41 -227.69 176.33 -226 169 C-225.69 164.1 -225.81 159.22 -225.94 154.31 C-226.55 128.18 -220.72 102.97 -203 83 C-202.74 82.67 -202.74 82.67 -201.43 81 C-190.62 67.53 -173.6 56.76 -156.59 53.39 C-149.08 52.58 -141.54 52.78 -134 53 C-133.75 52.12 -133.5 51.25 -133.24 50.35 C-125.83 30.32 -103.36 15.89 -85.18 7 C-79.64 4.46 -73.85 2.68 -68 1 C-66.68 0.61 -65.36 0.22 -64 -0.19 C-43.2 -4.41 -20.67 -5.28 0 0 Z " fill="#02366A" transform="translate(659,254)"/>
    </g>
    <g class="t10-motion__megaphone t10-motion__base-piece" clip-path="url(#t10-megaphone-clip)" aria-hidden="true"><use href="#t10-web-shape-001"/></g>
    <g class="t10-motion__wave-left t10-motion__base-piece" clip-path="url(#t10-left-wave-clip)" aria-hidden="true"><use href="#t10-web-shape-001"/></g>
    <g class="t10-motion__wave-right t10-motion__base-piece" clip-path="url(#t10-right-wave-clip)" aria-hidden="true"><use href="#t10-web-shape-001"/></g>
    <g id="t10-web-layer-002" data-module="head-hair" data-component="head-hair" data-part="head-hair source layer 002" data-color-family="purple" data-source-layer="002" inkscape:groupmode="layer" inkscape:label="002 · head-hair · head-hair source layer 002">
      <path id="t10-web-shape-002" d="M0 0 C1.31 0.28 2.63 0.56 3.98 0.84 C13.69 3 22.19 6.41 31 11 C32.17 11.6 33.35 12.19 34.56 12.81 C51.79 22.05 66.17 36.07 76 53 C76 53.66 76 54.32 76 55 C77.08 54.94 78.17 54.88 79.29 54.82 C84.93 54.83 90.06 56.35 95.44 57.94 C96.49 58.25 97.55 58.56 98.63 58.88 C112.37 63.13 124.2 69.43 135 79 C135.68 79.54 136.36 80.08 137.06 80.63 C157.59 97.23 164.56 123.69 168.21 148.57 C168.4 149.82 168.59 151.08 168.79 152.38 C168.95 153.51 169.11 154.64 169.28 155.8 C170.78 162.45 173.58 165.96 179 170 C183.18 172.09 188.45 171.44 193 171 C196.97 169.02 198.55 167.67 201 164 C201.66 164 202.32 164 203 164 C205.96 169.91 204.68 180.19 203.16 186.44 C200.51 193.28 195.84 202.58 189 206 C191 210 191 210 193.69 212.06 C200.58 218.17 206.56 227.81 208 237 C208.78 250.17 208.52 262.52 199.71 273.18 C191.31 282.14 191.31 282.14 185 283 C185.33 284.32 185.66 285.64 186 287 C187.23 299.36 185.12 310.72 177.88 321.02 C170.57 329.47 160.58 337.87 149 339 C145.66 339.07 142.34 339.06 139 339 C138.63 340.32 138.26 341.64 137.88 343 C134.36 353.46 126.6 360.29 117 365.25 C107.31 370.04 96.72 372.11 86 370 C80.26 367.83 75.15 364.49 69.99 361.21 C66.48 359.08 62.74 357.52 58.97 355.94 C57 355 57 355 55 353 C55.97 352.11 56.94 351.23 57.94 350.31 C63.12 345.17 66.98 339.06 71 333 C71.65 333.16 72.3 333.31 72.96 333.48 C86.96 335.89 99.04 334.13 110.75 325.88 C120.41 317.74 126.7 306.57 128.41 294.02 C128.7 285.31 126.93 277.88 121.31 271.12 C116.31 265.96 111.59 262.83 104.19 262.69 C100 263 100 263 97 264 C95.86 266.99 95.86 266.99 94.75 270.88 C89.88 286.21 79.45 299.1 66 308 C64.68 308.33 63.36 308.66 62 309 C62.63 303.61 63.9 298.56 65.44 293.38 C68.64 282.06 70.19 271.33 70.44 259.56 C70.47 258.61 70.51 257.67 70.54 256.69 C70.58 250.32 69.53 247.72 65 243 C61.88 237.54 60.12 232.44 58.94 226.25 C58.77 225.44 58.61 224.63 58.44 223.79 C57.08 216.88 56 209.92 55.04 202.94 C52.27 183.1 44.38 164.96 28.55 152 C26.09 150.21 23.6 148.58 21 147 C20.29 146.56 19.58 146.12 18.85 145.67 C13.25 142.56 7.28 140.69 1.19 138.81 C0.38 138.56 -0.42 138.31 -1.25 138.05 C-13.95 134.32 -26.42 133.65 -39.56 133.68 C-42.23 133.69 -44.9 133.66 -47.57 133.64 C-74.86 133.54 -99.1 140.79 -122.27 155.04 C-129.27 162.62 -131.12 174.58 -133.81 184.31 C-139.39 203.64 -146.78 219.41 -164 231 C-164.66 231.33 -164.66 231.33 -168 233 C-168.57 236.11 -168.88 238.87 -169 242 C-169.03 242.76 -169.07 243.51 -169.1 244.29 C-169.18 246.65 -169.22 249 -169.24 251.36 C-169.24 251.8 -169.24 251.8 -169.26 254.01 C-169.28 255.85 -169.29 257.69 -169.3 259.52 C-169.31 261.36 -169.33 263.2 -169.36 265.04 C-169.72 287.47 -165.9 309.4 -154.79 329.21 C-154.53 329.8 -154.27 330.39 -154 331 C-154.33 331.66 -154.66 332.32 -155 333 C-155.8 333.12 -156.61 333.25 -157.44 333.38 C-158.28 333.58 -159.13 333.79 -160 334 C-160.66 335.32 -161.32 336.64 -162 338 C-164 336 -166 334 -168 332 C-170.29 331.67 -172.58 331.39 -174.88 331.12 C-188.74 329.34 -188.74 329.34 -194 327 C-195.37 322.89 -195.06 319.33 -195 315 C-195.68 315.05 -196.36 315.09 -197.05 315.14 C-207.03 315.53 -213.71 313.26 -221.31 306.75 C-228.67 299.69 -233.67 291.68 -234.18 281.32 C-234.19 277.87 -234.13 274.44 -234 271 C-235.32 270.67 -236.64 270.34 -238 270 C-248.66 266.59 -255.3 258.44 -260.62 248.99 C-265.63 238.1 -265.99 224.18 -261.94 212.88 C-256.72 201.36 -247.8 193.14 -237.69 185.81 C-231.7 181.41 -227.69 176.33 -226 169 C-225.69 164.1 -225.81 159.22 -225.94 154.31 C-226.55 128.18 -220.72 102.97 -203 83 C-202.48 82.34 -201.97 81.68 -201.43 81 C-190.62 67.53 -173.6 56.76 -156.59 53.39 C-149.08 52.58 -141.54 52.78 -134 53 C-133.75 52.12 -133.5 51.25 -133.24 50.35 C-125.83 30.32 -103.36 15.89 -85.18 7 C-79.64 4.46 -73.85 2.68 -68 1 C-66.68 0.61 -65.36 0.22 -64 -0.19 C-43.2 -4.41 -20.67 -5.28 0 0 Z " fill="#02305E" transform="translate(659,254)"/>
    </g>
    <g id="t10-web-layer-003" data-module="head-hair" data-component="head-hair" data-part="head-hair source layer 003" data-color-family="skin" data-source-layer="003" inkscape:groupmode="layer" inkscape:label="003 · head-hair · head-hair source layer 003">
      <path id="t10-web-shape-003" d="M0 0 C2.67 0 5.34 -0.02 8.01 -0.05 C18.81 -0.09 28.75 0.82 39.31 3.32 C39.74 3.42 39.74 3.42 41.95 3.93 C61.55 8.86 78.27 18.34 89.43 35.61 C96.63 47.76 99.8 58.8 101.9 72.68 C102.65 77.57 103.44 82.44 104.24 87.32 C104.39 88.26 104.53 89.2 104.68 90.17 C106.29 99.79 109.25 109.26 116.31 116.32 C116.54 119.69 116.64 122.94 116.62 126.32 C116.61 127.31 116.61 128.3 116.6 129.32 C116.34 145.76 112.32 160.77 107.31 176.32 C119.32 169.33 127.42 161.39 134.31 149.32 C134.71 148.61 135.11 147.91 135.52 147.19 C137.9 142.74 139.25 138.3 140.4 133.42 C141.31 131.32 141.31 131.32 145.31 129.32 C152.69 128.54 157.37 129.82 163.31 134.32 C171.04 141.18 174.15 148.22 174.87 158.44 C174.43 171.73 167.62 183.37 158.22 192.3 C148.15 200.82 138.15 203.03 125.31 202.69 C121.81 202.36 119.42 201.86 116.31 200.32 C116.06 201.03 115.81 201.75 115.55 202.49 C107.94 219.73 88.3 231.67 72.06 239.5 C71.35 239.84 70.65 240.19 69.92 240.54 C66.17 242.27 62.63 243.55 58.58 244.37 C47.05 246.87 47.05 246.87 43.69 251.58 C41.21 256.26 39.34 261.13 37.46 266.07 C35.41 271.4 32.85 274.7 28.51 278.41 C25.11 281.35 22.5 284.86 19.7 288.36 C17.09 291.59 14.39 294.73 11.68 297.88 C7.66 302.59 4.02 307.39 0.65 312.59 C0.2 313.16 -0.24 313.73 -0.69 314.32 C-1.35 314.32 -2.01 314.32 -2.69 314.32 C-4.47 310.08 -6.25 305.85 -8.03 301.62 C-8.63 300.19 -9.23 298.75 -9.84 297.31 C-11.28 293.88 -12.72 290.45 -14.15 287.02 C-15.08 284.79 -16.03 282.56 -17 280.35 C-19.19 275.24 -20.18 271.22 -20.01 265.57 C-19.98 264.33 -19.96 263.1 -19.93 261.83 C-19.71 258.6 -19.29 255.5 -18.69 252.32 C-19.85 252.35 -21.01 252.38 -22.21 252.41 C-36.13 252.11 -49.93 246.5 -62.69 241.32 C-63.86 240.87 -65.02 240.43 -66.21 239.97 C-68.69 238.32 -68.69 238.32 -69.29 235.6 C-69.27 235.07 -69.27 235.07 -69.19 232.38 C-69.5 223.34 -72.91 215.99 -79.01 209.32 C-84.1 204.79 -88.86 202.38 -95.77 202.23 C-100.48 202.12 -104.23 201.85 -108.69 200.32 C-112.86 195.16 -114.72 189.57 -116.69 183.32 C-116.94 182.64 -116.94 182.64 -118.17 179.19 C-119.51 175.26 -120.73 171.36 -121.69 167.32 C-121.96 166.23 -122.22 165.13 -122.49 164.01 C-124.75 153.48 -125.1 143.39 -124.98 132.66 C-124.94 129.86 -124.93 127.06 -124.93 124.26 C-124.92 122.44 -124.91 120.63 -124.9 118.82 C-124.89 118 -124.89 117.18 -124.88 116.33 C-124.82 110.93 -124.52 105.66 -123.69 100.32 C-121.51 98.22 -121.51 98.22 -118.69 96.82 C-102.62 87.68 -95.76 72.48 -90.69 55.32 C-89.7 51.97 -88.7 48.63 -87.69 45.29 C-87 42.97 -86.31 40.65 -85.64 38.33 C-82.85 29.01 -79.99 23.49 -71.44 18.38 C-70.74 17.95 -70.04 17.52 -69.31 17.08 C-47.65 4.22 -24.88 -0.06 0 0 Z " fill="#FCE4CC" transform="translate(613.6943359375,386.684326171875)"/>
    </g>
    <g id="t10-web-layer-004" class="t10-motion__megaphone" clip-path="url(#t10-megaphone-clip)" data-module="clothing-body" data-component="clothing-body" data-part="clothing-body source layer 004" data-color-family="purple" data-source-layer="004" inkscape:groupmode="layer" inkscape:label="004 · clothing-body · clothing-body source layer 004">
      <path id="t10-web-shape-004" d="M0 0 C0.93 0.52 1.85 1.04 2.8 1.57 C11.38 6.67 19.07 12.7 24.44 21.19 C28.33 26.99 32.78 29.08 39 32 C40.65 32.85 42.29 33.7 43.93 34.56 C63.36 44.65 84.29 53.66 106.25 56 C114.12 56.92 117.31 59.79 122.12 65.81 C126.92 72.53 129.7 78.61 130 87 C130.03 87.53 130.03 87.53 130.16 90.19 C130.56 105.09 127.73 116.62 118.18 128.2 C115.36 130.53 113.08 130.96 109.5 131.62 C108.25 131.86 107.01 132.1 105.73 132.35 C102.45 132.92 99.16 133.47 95.88 134 C74.54 137.48 37.84 146.58 24.06 164.56 C23.04 166.04 22.02 167.52 21 169 C15.29 175.99 7.72 180.49 0 185 C-0.9 185.56 -1.8 186.11 -2.73 186.68 C-13.43 192.26 -29.13 192.06 -40.63 188.9 C-49.07 185.93 -49.07 185.93 -51 184 C-52.6 184.09 -54.2 184.24 -55.79 184.43 C-61.98 185.05 -68.1 185.19 -74.31 185.19 C-74.86 185.19 -74.86 185.19 -77.66 185.19 C-84.38 185.15 -90.73 184.6 -97.35 183.45 C-123.4 180.22 -143.42 187.19 -166.08 199.42 C-171.98 202.57 -177.59 205.07 -184 207 C-185.03 207.37 -186.06 207.75 -187.12 208.13 C-192.9 210.21 -198.13 211.42 -204.25 211.79 C-209.92 212.22 -215.61 213.2 -221 215 C-221 215.66 -221 216.32 -221 217 C-220.23 217.21 -219.46 217.42 -218.67 217.63 C-213.57 219.54 -209.02 222.22 -204.31 224.94 C-203.36 225.48 -202.41 226.01 -201.44 226.57 C-197.47 228.85 -194.26 230.74 -191 234 C-201.07 239.43 -211.21 244.64 -221.55 249.55 C-233.74 255.38 -245.89 261.3 -258.02 267.26 C-261.36 268.9 -264.7 270.53 -268.04 272.17 C-270.21 273.24 -272.38 274.3 -274.55 275.37 C-275.53 275.85 -276.5 276.32 -277.51 276.82 C-278.45 277.28 -279.38 277.74 -280.35 278.21 C-281.27 278.66 -282.18 279.11 -283.13 279.57 C-285.2 280.6 -287.26 281.65 -289.31 282.72 C-290.39 283.28 -291.48 283.84 -292.59 284.41 C-293.58 284.93 -294.57 285.45 -295.58 285.98 C-295.98 286.15 -295.98 286.15 -298 287 C-298.66 286.67 -299.32 286.34 -300 286 C-294.14 280.62 -288.17 275.45 -281.99 270.45 C-278.59 267.67 -275.26 264.81 -271.94 261.94 C-263.5 254.67 -254.79 247.84 -246 241 C-256.89 240.01 -267.78 239.02 -279 238 C-269.79 228.79 -260.37 219.91 -250 212 C-252.19 207.62 -254.44 205.52 -258.06 202.25 C-258.64 201.72 -259.22 201.2 -259.82 200.65 C-263.98 196.88 -268.21 193.17 -272.49 189.52 C-274 188 -274 188 -274 186 C-266.41 182.2 -254.3 185.78 -246.38 186.97 C-242.41 187.56 -238.44 188.13 -234.47 188.69 C-233.67 188.8 -232.87 188.92 -232.05 189.04 C-223.25 190.27 -214.42 191.22 -205.57 192.1 C-204.51 192.21 -203.44 192.31 -202.35 192.42 C-201.89 192.47 -201.89 192.47 -199.57 192.69 C-197.01 193 -194.52 193.46 -192 194 C-192 194.66 -192 195.32 -192 196 C-182.58 193.48 -174.52 189.84 -166.06 185.06 C-143.01 172.1 -119.47 167.25 -93.41 173.27 C-83.44 175.41 -73.14 175.14 -63 175 C-63.33 174.68 -63.33 174.68 -65 173.06 C-72.08 165.84 -77.46 159.08 -82 150 C-82.43 149.23 -82.86 148.47 -83.3 147.68 C-97.67 121.41 -98.93 85.36 -90.85 56.96 C-86.26 41.92 -79.74 27.69 -69 16 C-68.3 15.22 -67.61 14.45 -66.89 13.64 C-50.52 -3.71 -21.82 -13.18 0 0 Z " fill="#073260" transform="translate(378,528)"/>
    </g>
    <g class="t10-motion__wave-left" clip-path="url(#t10-left-wave-clip)" aria-hidden="true"><use href="#t10-web-shape-004"/></g>
    <g id="t10-web-layer-005" data-module="clothing-body" data-component="clothing-body" data-part="clothing-body source layer 005" data-color-family="purple" data-source-layer="005" inkscape:groupmode="layer" inkscape:label="005 · clothing-body · clothing-body source layer 005">
      <path id="t10-web-shape-005" d="M0 0 C8.5 3.93 15.35 10.83 18.88 19.52 C21.47 30.1 21.65 41.76 16.49 51.53 C14.16 55.24 11.52 58.64 8.74 62.03 C9.6 62.13 10.46 62.22 11.35 62.32 C19.83 63.4 27.66 65.26 35.74 68.03 C33.54 72.43 30.85 75.33 27.52 78.91 C25.74 81.03 25.74 81.03 24.74 84.03 C25.4 84.36 25.4 84.36 28.74 86.03 C32.18 88.57 35.45 91.3 38.74 94.03 C39.46 94.62 40.18 95.22 40.93 95.83 C45.68 99.86 49.83 104.18 53.74 109.03 C54.4 109.84 55.06 110.65 55.75 111.49 C64.6 122.94 69.28 133.75 67.47 148.21 C66.9 152.59 66.25 156.97 65.59 161.34 C64.76 166.81 64.08 172.29 63.43 177.78 C62.48 185.69 61.39 193.57 60.22 201.46 C60.08 202.38 59.95 203.29 59.81 204.24 C59.12 208.87 58.43 213.51 57.72 218.14 C57.47 219.87 57.21 221.59 56.95 223.32 C56.83 224.11 56.71 224.9 56.58 225.71 C56.12 228.84 55.74 231.84 55.79 235.01 C55.74 238.2 55.09 241.03 54.36 244.13 C52.9 251 52.02 258 50.99 264.95 C50.73 266.7 50.47 268.45 50.21 270.2 C49.52 274.79 48.84 279.38 48.16 283.97 C47.47 288.61 46.78 293.25 46.09 297.89 C45.19 303.93 44.29 309.96 43.39 316 C43.05 318.28 42.71 320.55 42.37 322.83 C41.96 325.56 41.56 328.29 41.16 331.03 C40.99 332.21 40.81 333.4 40.63 334.62 C40.48 335.65 40.33 336.68 40.18 337.73 C39.74 340.03 39.74 340.03 38.74 341.03 C23.72 341.9 8.92 340.19 -5.98 338.42 C-10.65 337.86 -15.33 337.35 -20.01 336.84 C-22.42 336.57 -24.84 336.3 -27.26 336.03 C-27.26 335.37 -27.26 334.71 -27.26 334.03 C-28.56 333.97 -29.86 333.9 -31.2 333.84 C-40.11 332.98 -48.8 329.85 -57.26 327.03 C-56.03 319.45 -54.29 312.19 -52.07 304.84 C-51.44 302.72 -50.81 300.61 -50.18 298.49 C-49.86 297.42 -49.54 296.35 -49.21 295.25 C-48.29 292.14 -47.39 289.02 -46.49 285.91 C-42.64 272.54 -38.54 259.26 -34.26 246.03 C-35.25 246.03 -36.24 246.03 -37.26 246.03 C-36.6 239.9 -34.34 234.38 -32.2 228.65 C-31.82 227.63 -31.44 226.61 -31.05 225.55 C-30.13 223.04 -29.19 220.53 -28.26 218.03 C-31.56 218.85 -34.58 219.84 -37.76 221.03 C-48.68 225.11 -59.44 225.52 -70.44 221.36 C-75.17 219.13 -79.22 216.33 -83.26 213.03 C-83.91 212.5 -84.55 211.98 -85.22 211.44 C-93.54 203.98 -97.79 192.77 -98.55 181.81 C-98.59 177.8 -98.63 173.8 -98.63 169.79 C-98.63 167.23 -98.67 164.67 -98.71 162.11 C-98.77 153.36 -98.77 144.84 -94.26 137.03 C-93.6 136.7 -92.94 136.37 -92.26 136.03 C-92.13 136.83 -92.01 137.63 -91.88 138.45 C-89.98 148.61 -85.86 157.31 -77.95 164.21 C-75.26 166.03 -75.26 166.03 -72.26 167.03 C-71.93 164.72 -71.6 162.41 -71.26 160.03 C-70.93 160.02 -70.93 160.02 -69.24 159.98 C-66.2 159.91 -63.17 159.81 -60.13 159.71 C-59.09 159.69 -58.04 159.67 -56.96 159.65 C-45.48 159.25 -45.48 159.25 -41.26 155.03 C-41.34 153.65 -41.42 152.26 -41.51 150.84 C-41.61 145.71 -39.6 143.87 -36.26 140.03 C-35.68 135.27 -36.09 133.36 -38.26 129.03 C-37.27 128.37 -36.28 127.71 -35.26 127.03 C-34.07 124.4 -34.07 124.4 -33.26 122.03 C-32.6 122.19 -32.6 122.19 -29.26 123.03 C-29.88 126.88 -30.5 130.74 -31.13 134.59 C-31.31 135.68 -31.48 136.76 -31.66 137.88 C-32.57 143.4 -33.67 148.66 -35.26 154.03 C-35.52 155.83 -35.73 157.65 -35.88 159.46 C-35.96 160.33 -36.03 161.19 -36.11 162.09 C-36.16 162.73 -36.21 163.37 -36.26 164.03 C-35.12 163.08 -33.99 162.13 -32.82 161.15 C-32.18 160.62 -31.54 160.09 -30.89 159.54 C-29.26 158.03 -29.26 158.03 -28.26 156.03 C-28.4 154.67 -28.55 153.3 -28.7 151.9 C-28.74 148.82 -28.6 147.47 -26.69 145.01 C-25.28 143.69 -23.86 142.39 -22.42 141.11 C-14.54 133.53 -10.21 121.58 -9.82 110.78 C-10.16 104.05 -11.44 98.81 -16.32 94.03 C-20.66 91.07 -22.93 90.42 -28.26 91.03 C-30.93 92.8 -32.95 94.77 -35.26 97.03 C-35.63 96.28 -36 95.54 -36.38 94.78 C-39.98 89.5 -45.14 87.25 -51.11 85.55 C-57.75 84.44 -64.55 84.82 -71.26 85.03 C-71.26 82.39 -71.26 79.75 -71.26 77.03 C-64.08 73.44 -56.01 72.27 -48.13 70.96 C-47.16 70.8 -46.18 70.63 -45.18 70.46 C-43.23 70.17 -41.27 69.94 -39.31 69.78 C-33.81 69.18 -30.86 68.3 -27.32 63.9 C-26.26 62.3 -25.23 60.68 -24.26 59.03 C-23.85 58.37 -23.44 57.72 -23.02 57.04 C-17.63 47.53 -17.89 36.63 -18.26 26.03 C-18.26 25.2 -18.27 24.37 -18.28 23.52 C-18.62 16.37 -22.2 9.08 -27.26 4.03 C-27.38 1.4 -27.38 1.4 -27.26 -0.97 C-19.61 -4.8 -8.11 -2.42 0 0 Z " fill="#033567" transform="translate(525.2578125,588.97265625)"/>
    </g>
    <g id="t10-web-layer-006" data-module="clothing-body" data-component="clothing-body" data-part="clothing-body source layer 006" data-color-family="red" data-source-layer="006" inkscape:groupmode="layer" inkscape:label="006 · clothing-body · clothing-body source layer 006">
      <path id="t10-web-shape-006" d="M0 0 C16.84 7.22 33.61 15.55 48 27 C44.98 30.02 43.6 30.73 39.68 32.05 C38.6 32.42 37.52 32.78 36.4 33.16 C35.24 33.54 34.08 33.92 32.88 34.31 C32.28 34.51 32.28 34.51 29.24 35.51 C-7.45 47.35 -7.45 47.35 -25 47 C-24.04 48.94 -23.09 50.88 -22.12 52.81 C-21.59 53.89 -21.06 54.97 -20.51 56.08 C-19 59 -19 59 -17 62 C-17 62.99 -17 63.98 -17 65 C-18.15 65.51 -19.3 66.02 -20.49 66.55 C-37.65 74.32 -53.51 83.92 -68 96 C-68.67 96.56 -69.34 97.11 -70.03 97.68 C-76.25 103.35 -82.35 112.04 -85 120 C-85.12 122.83 -85.18 125.62 -85.18 128.45 C-85.17 129.29 -85.17 130.14 -85.17 131.01 C-85.09 139.46 -84.35 147.81 -83.46 156.22 C-82.98 160.74 -82.54 165.27 -82.09 169.79 C-82 170.71 -81.91 171.64 -81.81 172.59 C-80.82 182.59 -80.02 192.6 -79.25 202.62 C-79.19 203.46 -79.12 204.3 -79.05 205.16 C-78.7 209.77 -78.35 214.39 -78 219 C-85.59 219 -93.18 219 -101 219 C-106 207.38 -106 207.38 -106 204 C-106.66 204 -107.32 204 -108 204 C-108.22 204.68 -108.22 204.68 -109.31 208.12 C-110.57 212.07 -112.09 215.19 -114 219 C-120.27 219 -126.54 219 -133 219 C-132.35 212.04 -131.5 205.14 -130.48 198.22 C-130.18 196.15 -129.88 194.08 -129.57 192.01 C-129.5 191.48 -129.5 191.48 -129.1 188.78 C-126.55 171.25 -124.12 153.74 -122.25 136.12 C-121.93 133.4 -121.46 130.7 -121 128 C-119.48 114.59 -124.94 103.89 -133 93.46 C-133.66 92.65 -134.32 91.84 -135 91 C-135.59 90.27 -136.18 89.54 -136.79 88.79 C-144.32 79.83 -153.72 73.03 -163 66 C-161.89 61.55 -160.59 60.15 -157.5 56.88 C-153.08 52.16 -153.08 52.16 -152 50 C-153.3 49.75 -154.6 49.5 -155.94 49.25 C-163.67 47.71 -171.33 45.83 -179 44 C-177 40 -174.76 36.25 -172.44 32.44 C-169.54 27.52 -168.57 23.65 -168 18 C-163.8 19.35 -159.69 20.88 -155.58 22.46 C-143.3 27.15 -131.09 30.51 -118 32 C-118.14 33.18 -118.28 34.36 -118.42 35.57 C-119.77 52.93 -113.23 66.55 -106 82 C-102 90.58 -102 90.58 -102 94 C-101.34 94 -100.68 94 -100 94 C-99.67 93.34 -99.67 93.34 -98 90 C-89.83 78.58 -80.57 67.94 -71.06 57.62 C-66.41 52.44 -63.02 47.5 -60.39 41.05 C-60.1 40.34 -59.81 39.62 -59.51 38.88 C-58.66 36.77 -57.85 34.64 -57.04 32.51 C-54.5 28.14 -52.76 27.49 -48 26 C-46.77 25.59 -45.54 25.17 -44.27 24.75 C-42.94 24.31 -41.62 23.88 -40.25 23.44 C-25.48 18.38 -11.12 11.12 0 0 Z " fill="#DB1663" transform="translate(713,607)"/>
    </g>
    <g id="t10-web-layer-007" data-module="clothing-body" data-component="clothing-body" data-part="clothing-body source layer 007" data-color-family="red" data-source-layer="007" inkscape:groupmode="layer" inkscape:label="007 · clothing-body · clothing-body source layer 007">
      <path id="t10-web-shape-007" d="M0 0 C4.64 3.75 8.1 8.24 11.56 13.07 C11.88 13.5 11.88 13.5 13.46 15.7 C19.21 24.14 25.22 34.61 24.56 45.07 C14.71 46.49 4.86 47.91 -5 49.26 C-6.16 49.42 -7.31 49.57 -8.5 49.74 C-11.44 50.07 -11.44 50.07 -15.44 50.07 C-15.44 50.73 -15.44 51.39 -15.44 52.07 C-14.72 52.28 -13.99 52.48 -13.25 52.7 C-8.97 54.79 -6.47 58.04 -4.32 62.25 C-2.17 69.1 -1.99 78.28 -4.57 85.04 C-7.43 89.52 -10.74 92.5 -15.44 95.07 C-8.09 97.13 -0.67 98.11 6.88 99.13 C9.39 99.48 11.91 99.82 14.43 100.17 C15.53 100.32 16.64 100.47 17.78 100.62 C20.56 101.07 20.56 101.07 23.56 102.07 C22.67 117.53 12.72 133.67 1.56 144.07 C-8.98 152.8 -20.78 156.12 -34.26 155.48 C-43.9 154.53 -50.27 150.35 -57.44 144.07 C-58.03 143.58 -58.63 143.09 -59.24 142.59 C-71.6 131.53 -80.76 111.28 -82.44 95.07 C-82.77 94.32 -83.1 93.57 -83.44 92.8 C-84.7 89.36 -84.7 86.48 -84.7 82.83 C-84.7 82.13 -84.7 82.13 -84.71 78.6 C-84.7 77.14 -84.7 75.69 -84.69 74.2 C-84.7 72.75 -84.7 71.31 -84.71 69.82 C-84.71 68.42 -84.71 67.02 -84.7 65.58 C-84.7 64.31 -84.7 63.03 -84.7 61.72 C-84.43 57.92 -83.59 54.69 -82.44 51.07 C-82.15 49.55 -81.87 48.03 -81.62 46.51 C-77.98 27.89 -67.89 8.22 -51.85 -2.69 C-33.99 -13.52 -17.2 -11.55 0 0 Z " fill="#E01763" transform="translate(381.4375,547.9296875)"/>
    </g>
    <g id="t10-web-layer-008" clip-path="url(#t10-right-arm-clip)" data-module="held-prop" data-component="held-prop" data-part="held-prop source layer 008" data-color-family="skin" data-source-layer="008" inkscape:groupmode="layer" inkscape:label="008 · held-prop · held-prop source layer 008">
      <path id="t10-web-shape-008" d="M0 0 C1.95 1.83 1.95 1.83 3.69 4.25 C4.27 5.04 4.85 5.83 5.45 6.64 C8.93 11.94 9.46 15.87 10 22 C11.21 22.47 12.42 22.95 13.66 23.43 C36.4 32.53 54.02 44.88 65.44 67 C73.48 82 82.6 91.07 99.18 96.27 C117.48 100.98 136.44 97.95 154 92 C151.5 89.96 149 87.92 146.5 85.88 C146.15 85.59 146.15 85.59 144.39 84.15 C140.81 81.23 137.21 78.41 133.47 75.7 C132.32 74.81 131.18 73.92 130 73 C130 72.34 130 71.68 130 71 C131.51 69.66 131.51 69.66 133.69 68.06 C137.79 64.97 141.72 61.72 145.62 58.38 C146.74 57.44 147.85 56.51 148.99 55.54 C150.71 54.09 152.41 52.63 154.07 51.11 C156.34 49.18 158.13 47.97 161.17 48.09 C163.53 48.57 165.72 49.23 168 50 C169.34 50.37 170.68 50.74 172.06 51.12 C173.03 51.41 174 51.7 175 52 C173.28 55.44 172.29 56.92 169.62 59.44 C166.84 62.14 164.26 64.83 162 68 C162 68.66 162 69.32 162 70 C164.57 72 167.15 73.89 169.81 75.75 C171.46 76.92 173.11 78.1 174.76 79.27 C175.62 79.88 176.48 80.49 177.37 81.12 C181.65 84.18 185.89 87.31 190.12 90.44 C190.89 91 191.66 91.57 192.45 92.15 C197.32 95.75 202.16 99.37 207 103 C205.68 105.64 204.4 105.93 201.75 107.16 C201.32 107.36 201.32 107.36 199.16 108.38 C198.26 108.79 197.36 109.2 196.44 109.62 C195.54 110.05 194.63 110.47 193.71 110.9 C191.47 111.94 189.24 112.97 187 114 C188.64 117.29 189.74 119.01 192.16 121.57 C192.78 122.24 193.41 122.9 194.05 123.58 C194.38 123.93 194.38 123.93 196.06 125.69 C196.74 126.4 197.42 127.12 198.12 127.86 C202.36 132.33 206.69 136.72 211.08 141.05 C213.63 143.64 215.99 146.38 218.36 149.14 C220.78 151.89 223.38 154.44 226 157 C225.67 157.66 225.34 158.32 225 159 C224.25 158.69 223.5 158.37 222.73 158.05 C217.83 156 212.93 153.96 208 152 C203.34 150.15 198.7 148.22 194.07 146.29 C192.04 145.43 190 144.59 187.96 143.75 C183.18 141.77 178.44 139.75 173.75 137.56 C167.93 134.88 161.95 132.7 155.94 130.48 C147.74 127.41 139.77 124.03 132 120 C132 119.34 132 118.68 132 118 C132.59 117.67 132.59 117.67 135.59 116.02 C137.18 115.14 138.78 114.26 140.38 113.38 C140.79 113.15 140.79 113.15 142.87 112 C148.01 109.14 153.08 106.2 158.05 103.06 C160 102 160 102 164 101 C164 100.34 164 99.68 164 99 C162.86 99.47 161.73 99.94 160.55 100.43 C137.06 109.98 111.43 113.47 87.3 103.61 C70.22 95.3 61.95 83.09 53.29 66.79 C44.72 51.19 30.68 40.99 14 35 C12.01 34.62 10.01 34.28 8 34 C4.85 46.31 2.42 58.26 1.72 70.97 C0.93 83.74 -2.74 96.74 -12 106 C-21.21 113.2 -29.38 115.52 -41 115 C-41 116.65 -41 118.3 -41 120 C-41.33 118.68 -41.66 117.36 -42 116 C-48.6 116 -55.2 116 -62 116 C-63.63 108.13 -64.35 100.72 -64.31 92.69 C-64.31 91.6 -64.31 90.51 -64.31 89.39 C-64.05 69.05 -64.05 69.05 -60 65 C-57.48 64.76 -54.96 64.59 -52.44 64.44 C-51.05 64.35 -49.67 64.27 -48.25 64.18 C-47.17 64.12 -46.1 64.06 -45 64 C-44.77 63.2 -44.54 62.4 -44.3 61.58 C-42.65 57.05 -40.42 52.98 -38.12 48.75 C-34.66 42.28 -31.51 35.91 -29 29 C-28.34 27.33 -27.67 25.66 -27 24 C-34.56 22.39 -41.78 21.64 -49.5 21.69 C-50.54 21.69 -51.58 21.7 -52.66 21.7 C-73.29 22.02 -91.27 27.83 -110.5 34.79 C-111.11 35.01 -111.11 35.01 -114.19 36.12 C-115.39 36.56 -116.6 37 -117.84 37.45 C-132.81 42.82 -146.93 46.18 -162.88 46.19 C-164.02 46.2 -165.17 46.21 -166.35 46.22 C-172.6 46.24 -178.02 45.86 -184 44 C-183.67 43.84 -183.67 43.84 -182 43 C-182 42.34 -182 41.68 -182 41 C-181.27 40.94 -180.53 40.87 -179.78 40.8 C-153.25 38.39 -130.51 32.85 -105.84 23.06 C-86.5 15.42 -68.69 11.62 -47.94 11.69 C-47.18 11.69 -46.43 11.69 -45.65 11.69 C-37.04 11.74 -28.55 12.07 -20 13 C-19.71 12.23 -19.43 11.46 -19.13 10.66 C-16.99 5.63 -13.91 3.41 -9 1.19 C-3.42 -0.47 -3.42 -0.47 0 0 Z " fill="#FDDCBE" transform="translate(957,583)"/>
    </g>
    <g class="t10-motion__wave-right" clip-path="url(#t10-right-wave-clip)" aria-hidden="true"><use href="#t10-web-shape-008"/></g>
    <g id="t10-web-layer-009" data-module="legs-shoes" data-component="legs-shoes" data-part="legs-shoes source layer 009" data-color-family="purple" data-source-layer="009" inkscape:groupmode="layer" inkscape:label="009 · legs-shoes · legs-shoes source layer 009">
      <path id="t10-web-shape-009" d="M0 0 C0.99 0 1.98 0 3 0 C4.33 -0.06 5.65 -0.12 7.02 -0.18 C14.49 -0.18 21.81 1.24 29.16 2.45 C55.16 6.71 80.69 8.41 107 9 C105.14 16.68 103.09 24.26 100.75 31.81 C100.13 33.82 99.52 35.82 98.9 37.82 C98.59 38.84 98.28 39.86 97.95 40.9 C96.39 45.97 94.85 51.05 93.31 56.12 C86.56 78.33 86.56 78.33 85 83 C46.72 83 8.44 83 -31 83 C-31 69.86 -28.25 62.63 -19.28 53.16 C-12.77 47 -12.77 47 -10 47 C-9.88 45.87 -9.77 44.74 -9.64 43.58 C-9.05 38.84 -7.91 34.31 -6.69 29.69 C-4.15 19.85 -2.02 9.96 0 0 Z " fill="#043668" transform="translate(494,936)"/>
    </g>
    <g id="t10-web-layer-010" data-module="clothing-body" data-component="clothing-body" data-part="clothing-body source layer 010" data-color-family="purple" data-source-layer="010" inkscape:groupmode="layer" inkscape:label="010 · clothing-body · clothing-body source layer 010">
      <path id="t10-web-shape-010" d="M0 0 C0.66 0 1.32 0 2 0 C2.84 2.12 3.67 4.25 4.5 6.38 C4.73 6.97 4.73 6.97 5.91 9.96 C7 13 7 13 7 15 C14.59 15 22.18 15 30 15 C32.55 33.46 35.06 51.93 37.25 70.44 C37.41 71.8 37.58 73.15 37.74 74.55 C37.82 75.2 37.82 75.2 38.2 78.5 C38.27 79.05 38.27 79.05 38.6 81.88 C39.19 87.91 39.57 93.96 40 100 C29.11 100 18.22 100 7 100 C4 110 4 110 3.03 113.23 C2.15 116.18 1.26 119.12 0.38 122.06 C0.06 123.11 -0.25 124.15 -0.57 125.22 C-0.87 126.21 -1.17 127.2 -1.48 128.22 C-1.75 129.12 -2.01 130.01 -2.29 130.93 C-3 133 -3 133 -4 134 C-31.97 135.68 -59.7 132.31 -87.22 127.63 C-94.26 126.45 -100.86 125.75 -108 126 C-108.33 126.66 -108.33 126.66 -110 130 C-110.18 124.17 -109.91 119.6 -108 114 C-102.89 112.41 -98.11 113.52 -92.94 114.31 C-90.95 114.6 -88.96 114.88 -86.97 115.16 C-86.47 115.24 -86.47 115.24 -83.94 115.59 C-72.76 117.14 -61.67 118.14 -50.38 118.05 C-49.93 118.05 -49.93 118.05 -47.63 118.04 C-45.42 118.03 -43.21 118.02 -41 118 C-40.83 116.85 -40.66 115.71 -40.48 114.53 C-38.87 103.72 -37.25 92.9 -35.63 82.09 C-34.79 76.53 -33.96 70.97 -33.13 65.41 C-32.33 60.04 -31.53 54.68 -30.72 49.31 C-30.41 47.26 -30.11 45.22 -29.8 43.17 C-29.38 40.3 -28.94 37.43 -28.51 34.56 C-28.39 33.72 -28.26 32.88 -28.14 32.02 C-25.83 16.83 -25.83 16.83 -24 15 C-20.97 14.76 -17.97 14.58 -14.94 14.44 C-14.51 14.42 -14.51 14.42 -12.35 14.31 C-10.23 14.2 -8.12 14.1 -6 14 C-4.02 9.38 -2.04 4.76 0 0 Z " fill="#02274C" transform="translate(605,811)"/>
    </g>
    <g id="t10-web-layer-011" data-module="clothing-body" data-component="clothing-body" data-part="clothing-body source layer 011" data-color-family="red" data-source-layer="011" inkscape:groupmode="layer" inkscape:label="011 · clothing-body · clothing-body source layer 011">
      <path id="t10-web-shape-011" d="M0 0 C3.74 1.42 7.21 3.11 10.73 5.01 C23.87 12.03 36.75 18.57 51 23 C51.38 23.12 51.38 23.12 53.31 23.73 C61.23 26.19 68.96 28.12 77.25 29 C85.12 29.92 88.31 32.79 93.12 38.81 C97.92 45.53 100.7 51.61 101 60 C101.05 61.05 101.1 62.11 101.16 63.19 C101.56 78.09 98.73 89.62 89.18 101.2 C86.36 103.53 84.08 103.96 80.5 104.62 C79.25 104.86 78.01 105.1 76.73 105.35 C73.45 105.92 70.16 106.47 66.88 107 C43.52 110.81 21.88 120.19 1 131 C1.58 127.14 2.72 124.51 4.75 121.19 C18.6 96.32 20.31 59.9 13.41 32.63 C10.3 21.86 6.35 11.27 0 2 C0 1.34 0 0.68 0 0 Z " fill="#D91562" transform="translate(407,555)"/>
    </g>
    <g id="t10-web-layer-012" data-module="clothing-body" data-component="clothing-body" data-part="clothing-body source layer 012" data-color-family="red" data-source-layer="012" inkscape:groupmode="layer" inkscape:label="012 · clothing-body · clothing-body source layer 012">
      <path id="t10-web-shape-012" d="M0 0 C7.61 1.56 15.59 1.53 23.34 1.78 C30.6 2.14 35.19 2.61 40.5 7.78 C40.5 8.44 40.5 9.1 40.5 9.78 C33.71 11.84 27.44 12.09 20.38 12.03 C19.26 12.03 18.14 12.02 16.99 12.02 C10.23 11.95 3.81 11.39 -2.85 10.23 C-28.9 7 -48.92 13.97 -71.58 26.2 C-77.48 29.35 -83.09 31.85 -89.5 33.78 C-90.53 34.16 -91.56 34.53 -92.62 34.91 C-98.4 36.99 -103.63 38.2 -109.75 38.57 C-115.42 39.01 -121.11 39.98 -126.5 41.78 C-126.5 42.44 -126.5 43.1 -126.5 43.78 C-125.73 43.99 -124.96 44.2 -124.17 44.41 C-119.07 46.32 -114.52 49 -109.81 51.72 C-108.86 52.26 -107.91 52.8 -106.94 53.35 C-102.97 55.63 -99.76 57.52 -96.5 60.78 C-106.57 66.21 -116.71 71.42 -127.05 76.34 C-139.24 82.16 -151.39 88.08 -163.52 94.04 C-166.86 95.68 -170.2 97.32 -173.54 98.95 C-175.71 100.02 -177.88 101.08 -180.05 102.15 C-180.54 102.39 -180.54 102.39 -183.01 103.6 C-183.95 104.06 -184.88 104.52 -185.85 105 C-186.77 105.44 -187.68 105.89 -188.63 106.35 C-190.7 107.38 -192.76 108.43 -194.81 109.5 C-195.89 110.06 -196.98 110.62 -198.09 111.2 C-199.08 111.71 -200.07 112.23 -201.08 112.76 C-201.88 113.1 -202.68 113.44 -203.5 113.78 C-204.16 113.45 -204.82 113.12 -205.5 112.78 C-199.64 107.41 -193.67 102.24 -187.49 97.23 C-184.09 94.45 -180.76 91.59 -177.44 88.72 C-169 81.45 -160.29 74.62 -151.5 67.78 C-156.94 67.29 -156.94 67.29 -184.5 64.78 C-175.29 55.57 -165.87 46.69 -155.5 38.78 C-157.69 34.4 -159.94 32.3 -163.56 29.03 C-164.14 28.5 -164.72 27.98 -165.32 27.44 C-169.48 23.66 -173.71 19.95 -177.99 16.3 C-179.5 14.78 -179.5 14.78 -179.5 12.78 C-171.91 8.99 -159.8 12.56 -151.88 13.75 C-147.91 14.34 -143.94 14.91 -139.97 15.47 C-139.17 15.59 -138.37 15.7 -137.55 15.82 C-128.75 17.05 -119.92 18 -111.07 18.88 C-110.01 18.99 -108.94 19.09 -107.85 19.2 C-107.39 19.25 -107.39 19.25 -105.07 19.47 C-102.51 19.78 -100.02 20.24 -97.5 20.78 C-97.5 21.44 -97.5 22.1 -97.5 22.78 C-88.08 20.26 -80.02 16.62 -71.56 11.84 C-48.99 -0.84 -25.54 -6.16 0 0 Z " fill="#E41E62" transform="translate(283.5,701.21875)"/>
    </g>
    <g id="t10-web-layer-013" data-module="held-prop" data-component="held-prop" data-part="held-prop source layer 013" data-color-family="red" data-source-layer="013" inkscape:groupmode="layer" inkscape:label="013 · held-prop · held-prop source layer 013">
      <path id="t10-web-shape-013" d="M0 0 C24.79 7.56 44.2 20.71 56.64 43.66 C65.01 59.1 73.93 68.86 91.18 74.27 C109.48 78.98 128.44 75.95 146 70 C143.5 67.96 141 65.92 138.5 63.88 C137.8 63.31 137.11 62.74 136.39 62.15 C132.81 59.23 129.21 56.41 125.47 53.7 C124.9 53.25 124.9 53.25 122 51 C122 50.34 122 49.68 122 49 C123.51 47.66 123.51 47.66 125.69 46.06 C129.79 42.97 133.72 39.72 137.62 36.38 C138.74 35.44 139.85 34.51 140.99 33.54 C142.71 32.09 144.41 30.63 146.07 29.11 C148.34 27.18 150.13 25.97 153.17 26.09 C155.53 26.57 157.72 27.23 160 28 C161.34 28.37 162.68 28.74 164.06 29.12 C165.03 29.41 166 29.7 167 30 C165.28 33.44 164.29 34.92 161.62 37.44 C158.84 40.14 156.26 42.83 154 46 C154 46.66 154 47.32 154 48 C156.57 50 159.15 51.89 161.81 53.75 C163.46 54.92 165.11 56.1 166.76 57.27 C167.62 57.88 168.48 58.49 169.37 59.12 C173.65 62.18 177.89 65.31 182.12 68.44 C182.89 69 183.66 69.57 184.45 70.15 C189.32 73.75 194.16 77.37 199 81 C197.68 83.64 196.4 83.93 193.75 85.16 C193.32 85.36 193.32 85.36 191.16 86.38 C190.26 86.79 189.36 87.2 188.44 87.62 C187.54 88.05 186.63 88.47 185.71 88.9 C183.47 89.94 181.24 90.97 179 92 C180.64 95.29 181.74 97.01 184.16 99.57 C184.78 100.24 185.41 100.9 186.05 101.58 C186.72 102.28 187.38 102.97 188.06 103.69 C188.74 104.4 189.42 105.12 190.12 105.86 C194.36 110.33 198.69 114.72 203.08 119.05 C205.63 121.64 207.99 124.38 210.36 127.14 C212.78 129.89 215.38 132.44 218 135 C217.67 135.66 217.34 136.32 217 137 C216.25 136.69 215.5 136.37 214.73 136.05 C209.83 134 204.93 131.96 200 130 C195.34 128.15 190.7 126.22 186.07 124.29 C184.04 123.43 182 122.59 179.96 121.75 C175.18 119.77 170.44 117.75 165.75 115.56 C159.93 112.88 153.95 110.7 147.94 108.48 C139.74 105.41 131.77 102.03 124 98 C124 97.34 124 96.68 124 96 C125.18 95.35 126.37 94.7 127.59 94.02 C129.18 93.14 130.78 92.26 132.38 91.38 C133.2 90.92 134.02 90.47 134.87 90 C140.01 87.14 145.08 84.2 150.05 81.06 C152 80 152 80 156 79 C156 78.34 156 77.68 156 77 C154.86 77.47 153.73 77.94 152.55 78.43 C129.06 87.98 103.43 91.47 79.3 81.61 C62.22 73.3 53.95 61.09 45.29 44.79 C36.42 28.64 22.66 19.99 6 13 C4.6 12.4 3.21 11.79 1.81 11.19 C0.88 10.8 -0.04 10.4 -1 10 C-0.67 6.7 -0.34 3.4 0 0 Z " fill="#E51F62" transform="translate(965,605)"/>
    </g>
    <g id="t10-web-layer-014" data-module="left-hand" data-component="left-hand" data-part="left-hand source layer 014" data-color-family="skin" data-source-layer="014" inkscape:groupmode="layer" inkscape:label="014 · left-hand · left-hand source layer 014">
      <path id="t10-web-shape-014" d="M0 0 C2.33 1.94 4.35 3.72 5.73 6.47 C6.57 5.48 7.42 4.49 8.29 3.47 C10.81 0.96 11.56 0.5 15.23 -0.16 C20.42 0.77 23.35 3.05 26.98 6.78 C30.9 12.81 31.63 19.46 30.73 26.47 C28.03 37.33 24.29 46.49 15.85 53.97 C13.74 55.95 12.81 56.83 12.43 59.73 C12.44 60.12 12.44 60.12 12.54 62.09 C12.73 66.47 12.73 66.47 11.1 69.28 C8.49 71.69 5.7 73.53 2.73 75.47 C3.77 65.93 5.41 56.57 7.29 47.16 C7.51 46.04 7.73 44.93 7.96 43.78 C9.6 35.73 9.6 35.73 10.73 33.47 C9.41 33.14 8.09 32.81 6.73 32.47 C6.58 32.95 6.58 32.95 5.85 35.41 C4.73 38.47 4.73 38.47 2.73 39.47 C3.39 40.79 4.05 42.11 4.73 43.47 C5.16 46.84 5.16 46.84 4.73 50.47 C3.9 51.42 3.08 52.37 2.23 53.34 C-0.48 56.73 -0.54 57.08 -0.27 61.09 C-0.27 65.47 -0.27 65.47 -2.59 67.97 C-6.46 70.13 -9.24 70.59 -13.6 70.57 C-14.63 70.56 -15.65 70.56 -16.71 70.56 C-17.78 70.55 -18.86 70.54 -19.96 70.53 C-21.04 70.53 -22.13 70.52 -23.24 70.52 C-25.92 70.51 -28.6 70.49 -31.27 70.47 C-31.27 73.11 -31.27 75.75 -31.27 78.47 C-39.47 75.99 -44.5 69.65 -48.76 62.59 C-54.61 50.52 -54.85 36.4 -51.12 23.71 C-50.27 21.47 -50.27 21.47 -48.27 18.47 C-47.95 16.92 -47.69 15.35 -47.46 13.78 C-46.28 7.44 -43.93 2.59 -38.77 -1.53 C-36.07 -2.61 -34.15 -2.78 -31.27 -2.53 C-31.27 -3.19 -31.27 -3.85 -31.27 -4.53 C-20.59 -6.92 -9.3 -6.26 0 0 Z " fill="#FBDFC4" transform="translate(485.2734375,678.53125)"/>
    </g>
    <g id="t10-web-layer-015" data-module="clothing-body" data-component="clothing-body" data-part="clothing-body source layer 015" data-color-family="red" data-source-layer="015" inkscape:groupmode="layer" inkscape:label="015 · clothing-body · clothing-body source layer 015">
      <path id="t10-web-shape-015" d="M0 0 C4.61 -0.17 9.21 -0.3 13.82 -0.38 C15.39 -0.42 16.96 -0.47 18.52 -0.53 C31.43 -1.02 31.43 -1.02 35.13 1.38 C37.92 5.02 38.25 8.48 39 13 C34.05 13.66 29.1 14.32 24 15 C19.49 31.36 20.28 48.23 22 65 C28.6 65 35.2 65 42 65 C41.77 74.61 40.09 83.91 33 91 C30.9 91.41 30.9 91.41 28.31 91.63 C27.36 91.72 26.42 91.8 25.44 91.89 C24.45 91.97 23.46 92.04 22.44 92.12 C21.47 92.21 20.51 92.3 19.51 92.39 C13.66 92.88 7.87 93.3 2 93 C-4.37 86.63 -6.2 75.57 -8 67 C-8.33 66.67 -8.66 66.34 -9 66 C-11.91 43.21 -11.99 20.21 0 0 Z " fill="#E01864" transform="translate(873,634)"/>
    </g>
    <g id="t10-web-layer-016" data-module="clothing-body" data-component="clothing-body" data-part="clothing-body source layer 016" data-color-family="red" data-source-layer="016" inkscape:groupmode="layer" inkscape:label="016 · clothing-body · clothing-body source layer 016">
      <path id="t10-web-shape-016" d="M0 0 C1.32 0.33 2.64 0.66 4 1 C3.38 4.86 2.75 8.71 2.12 12.56 C1.95 13.65 1.78 14.73 1.6 15.85 C0.69 21.37 -0.41 26.63 -2 32 C-2.26 33.81 -2.48 35.62 -2.62 37.44 C-2.7 38.3 -2.77 39.17 -2.85 40.06 C-2.9 40.7 -2.95 41.34 -3 42 C-1.87 41.05 -0.73 40.1 0.44 39.12 C1.08 38.59 1.71 38.06 2.37 37.51 C4 36 4 36 5 34 C4.93 33.32 4.93 33.32 4.56 29.88 C4.51 26.7 4.73 25.36 6.64 22.77 C8.69 20.75 10.81 18.87 13 17 C14.34 15.68 15.68 14.35 17 13 C20.6 20.2 19.82 32.15 18.19 39.81 C17.8 40.86 17.4 41.92 17 43 C16.81 43.56 16.81 43.56 15.88 46.38 C10.6 56.57 2.31 62.29 -8 67 C-18.96 70.37 -32.41 70.99 -43 66 C-52.28 60.98 -60.11 54.01 -64.15 44.12 C-66.8 34.38 -65.82 23.91 -61 15 C-60.34 14.67 -59.68 14.34 -59 14 C-58.88 14.8 -58.75 15.6 -58.62 16.42 C-56.72 26.58 -52.6 35.28 -44.69 42.19 C-42 44 -42 44 -39 45 C-38.67 42.69 -38.34 40.38 -38 38 C-37.67 37.99 -37.67 37.99 -35.98 37.96 C-32.95 37.88 -29.91 37.78 -26.88 37.69 C-25.83 37.66 -24.78 37.64 -23.7 37.62 C-12.22 37.22 -12.22 37.22 -8 33 C-8.08 31.62 -8.17 30.24 -8.25 28.81 C-8.35 23.68 -6.34 21.84 -3 18 C-2.43 13.25 -2.83 11.34 -5 7 C-4.01 6.34 -3.02 5.68 -2 5 C-0.81 2.38 -0.81 2.38 0 0 Z " fill="#E21763" transform="translate(492,711)"/>
    </g>
    <g id="t10-web-layer-017" data-module="face-detail" data-component="face-detail" data-part="face-detail source layer 017" data-color-family="red" data-source-layer="017" inkscape:groupmode="layer" inkscape:label="017 · face-detail · face-detail source layer 017">
      <path id="t10-web-shape-017" d="M0 0 C0.93 -0.02 1.86 -0.03 2.82 -0.05 C12.28 -0.06 20.99 1.74 28.12 8.31 C32.52 14.58 34.41 20.71 33.12 28.31 C31 35.81 26.55 42.31 20.08 46.7 C11.6 50.86 0.01 50.9 -9.01 48.46 C-18.43 44.21 -23.25 36.65 -26.88 27.31 C-28.89 21.28 -28.95 14.55 -26.19 8.81 C-18.55 0.56 -10.75 -0.04 0 0 Z " fill="#EC1B61" transform="translate(591.875,571.6875)"/>
    </g>
    <g id="t10-web-layer-018" data-module="right-hand" data-component="right-hand" data-part="right-hand source layer 018" data-color-family="skin" data-source-layer="018" inkscape:groupmode="layer" inkscape:label="018 · right-hand · right-hand source layer 018">
      <path id="t10-web-shape-018" d="M0 0 C-1.53 10.77 -7.7 21.76 -15.72 28.91 C-19.07 31.98 -21.78 35.5 -24.61 39.04 C-27.22 42.27 -29.92 45.41 -32.62 48.56 C-36.64 53.28 -40.28 58.08 -43.66 63.27 C-44.1 63.84 -44.54 64.41 -45 65 C-45.66 65 -46.32 65 -47 65 C-48.78 60.77 -50.56 56.54 -52.33 52.3 C-52.94 50.87 -53.54 49.43 -54.14 48 C-55.59 44.57 -57.02 41.14 -58.45 37.7 C-59.38 35.47 -60.33 33.25 -61.3 31.03 C-63.5 25.93 -64.49 21.91 -64.31 16.25 C-64.29 15.02 -64.26 13.79 -64.24 12.52 C-64.02 9.28 -63.56 6.19 -63 3 C-62.42 3.01 -62.42 3.01 -59.51 3.05 C-55.14 3.1 -50.78 3.14 -46.42 3.16 C-44.54 3.18 -42.67 3.2 -40.8 3.23 C-29.71 3.38 -19.32 2.92 -8.45 0.65 C-5.51 0.1 -2.97 -0.14 0 0 Z " fill="#FEE0C6" transform="translate(658,636)"/>
    </g>
    <g id="t10-web-layer-019" data-module="fine-detail" data-component="fine-detail" data-part="fine-detail source layer 019" data-color-family="red" data-source-layer="019" inkscape:groupmode="layer" inkscape:label="019 · fine-detail · fine-detail source layer 019">
      <path id="t10-web-shape-019" d="M0 0 C0.2 0.7 0.2 0.7 1.19 4.25 C2.72 9.44 4.78 14.31 7.01 19.24 C8.01 22.04 8.2 24.06 8 27 C7 27.17 6.01 27.34 4.98 27.52 C-7.87 29.74 -7.87 29.74 -13.91 31.02 C-26.78 33.73 -39.8 36.11 -53 36 C-54 31.88 -55 27.75 -56 23.62 C-56.29 22.45 -56.57 21.27 -56.87 20.06 C-57.14 18.94 -57.41 17.82 -57.69 16.66 C-57.94 15.63 -58.19 14.59 -58.45 13.52 C-59 11 -59 11 -59 9 C-51.53 6.95 -43.95 5.75 -36.31 4.5 C-35.03 4.29 -33.74 4.07 -32.42 3.86 C-28.61 3.23 -24.81 2.61 -21 2 C-19.78 1.8 -18.57 1.61 -17.32 1.4 C-16.17 1.22 -15.02 1.04 -13.84 0.85 C-13.34 0.77 -13.34 0.77 -10.78 0.36 C-7.14 -0.11 -3.66 -0.14 0 0 Z " fill="#E01863" transform="translate(756,805)"/>
    </g>
    <g id="t10-web-layer-020" data-module="ground-detail" data-component="ground-detail" data-part="ground-detail source layer 020" data-color-family="red" data-source-layer="020" inkscape:groupmode="layer" inkscape:label="020 · ground-detail · ground-detail source layer 020">
      <path id="t10-web-shape-020" d="M0 0 C8.69 5.93 14.51 14.12 18 24 C18 24.99 18 25.98 18 27 C-4.77 27 -27.54 27 -51 27 C-51 17.02 -48.45 11.91 -41.91 4.82 C-29.6 -6.89 -14.81 -7.19 0 0 Z " fill="#E01863" transform="translate(788,982)"/>
    </g>
    <g id="t10-web-layer-021" data-module="ground-detail" data-component="ground-detail" data-part="ground-detail source layer 021" data-color-family="red" data-source-layer="021" inkscape:groupmode="layer" inkscape:label="021 · ground-detail · ground-detail source layer 021">
      <path id="t10-web-shape-021" d="M0 0 C5.65 3.44 10.75 7.97 14.43 13.48 C14.43 14.8 14.43 16.12 14.43 17.48 C15.09 17.48 15.75 17.48 16.43 17.48 C17.43 20.48 17.43 20.48 17.43 28.48 C-5.34 28.48 -28.11 28.48 -51.57 28.48 C-49.77 17.64 -43.62 10.77 -35.57 3.73 C-24.87 -2.96 -11.73 -5.33 0 0 Z " fill="#E11763" transform="translate(515.57421875,980.5234375)"/>
    </g>
    <g id="t10-web-layer-022" data-module="clothing-body" data-component="clothing-body" data-part="clothing-body source layer 022" data-color-family="red" data-source-layer="022" inkscape:groupmode="layer" inkscape:label="022 · clothing-body · clothing-body source layer 022">
      <path id="t10-web-shape-022" d="M0 0 C0.76 -0 1.52 -0 2.3 -0.01 C10.75 -0 18.66 0.34 26.88 2.38 C25.67 5.48 24.37 8.39 22.88 11.38 C22.22 11.3 21.56 11.23 20.88 11.16 C-9.39 8.32 -34.36 12.94 -62.63 23.17 C-63.84 23.61 -65.06 24.05 -66.31 24.5 C-67.52 24.94 -68.72 25.37 -69.96 25.82 C-84.94 31.19 -99.06 34.55 -115 34.56 C-116.15 34.57 -117.29 34.59 -118.47 34.6 C-124.72 34.61 -130.15 34.23 -136.12 32.38 C-135.47 32.04 -134.8 31.72 -134.12 31.38 C-134.12 30.72 -134.12 30.05 -134.12 29.38 C-133.39 29.31 -132.66 29.25 -131.9 29.18 C-105.37 26.77 -82.63 21.23 -57.96 11.43 C-38.61 3.79 -20.76 -0 0 0 Z " fill="#EC2464" transform="translate(909.125,594.625)"/>
    </g>
    <g id="t10-web-layer-023" data-module="ground-detail" data-component="ground-detail" data-part="ground-detail source layer 023" data-color-family="purple" data-source-layer="023" inkscape:groupmode="layer" inkscape:label="023 · ground-detail · ground-detail source layer 023">
      <path id="t10-web-shape-023" d="M0 0 C2.19 4.39 2.16 8.15 2 13 C1.84 12.67 1.84 12.67 1 11 C-0.27 11.32 -1.54 11.65 -2.86 11.98 C-15.51 15.14 -28.08 17.42 -41 19.12 C-42.87 19.38 -44.75 19.63 -46.62 19.89 C-60.86 21.81 -75.13 23.42 -89.45 24.71 C-96.52 25.52 -96.52 25.52 -99 28 C-102.61 22.74 -104 17.35 -104 11 C-98.64 10.16 -93.3 9.7 -87.89 9.39 C-86.08 9.27 -84.27 9.16 -82.46 9.05 C-81.52 8.99 -80.58 8.93 -79.61 8.87 C-64.41 7.91 -49.25 6.78 -34.12 5 C-33.46 4.92 -33.46 4.92 -30.09 4.53 C-22.62 3.61 -15.35 2.31 -8.02 0.59 C-5.25 0.05 -2.81 -0.11 0 0 Z " fill="#01264A" transform="translate(773,920)"/>
    </g>
    <g id="t10-web-layer-024" data-module="fine-detail" data-component="fine-detail" data-part="fine-detail source layer 024" data-color-family="red" data-source-layer="024" inkscape:groupmode="layer" inkscape:label="024 · fine-detail · fine-detail source layer 024">
      <path id="t10-web-shape-024" d="M0 0 C0.66 0 1.32 0 2 0 C2 0.99 2 1.98 2 3 C8.93 4.89 15.91 6.03 23 7.12 C24.16 7.31 25.31 7.49 26.5 7.68 C29.34 8.12 32.17 8.56 35 9 C36.27 12.82 35.14 14.79 33.83 18.46 C32.73 21.82 32.12 25.22 31.47 28.69 C30.89 31.55 30.01 34.26 29 37 C22.62 37.22 16.87 36.4 10.62 35.12 C9.74 34.95 8.86 34.78 7.95 34.6 C5.3 34.07 2.65 33.54 0 33 C-1.89 32.62 -3.78 32.24 -5.66 31.87 C-7.09 31.58 -8.53 31.29 -10 31 C-9.34 24.93 -7.12 19.48 -5 13.81 C-4.27 11.84 -3.54 9.87 -2.81 7.89 C-2.49 7.03 -2.17 6.16 -1.83 5.26 C-1.19 3.52 -0.59 1.76 0 0 Z " fill="#DF1A65" transform="translate(498,804)"/>
    </g>
    <g id="t10-web-layer-025" data-module="face-detail" data-component="face-detail" data-part="face-detail source layer 025" data-color-family="red" data-source-layer="025" inkscape:groupmode="layer" inkscape:label="025 · face-detail · face-detail source layer 025">
      <path id="t10-web-shape-025" d="M0 0 C0.93 -0.02 1.86 -0.03 2.82 -0.05 C12.6 -0.06 20.56 2.01 28.12 8.31 C30.12 11.31 30.12 11.31 30.12 15.31 C29.81 15.32 29.81 15.32 28.2 15.34 C-3.2 15.92 -3.2 15.92 -14.62 27.01 C-17.49 30.19 -19.63 33.2 -20.88 37.31 C-25.21 33.87 -26.79 29.59 -27.88 24.31 C-28.48 18.66 -28.69 13.99 -26.19 8.81 C-18.55 0.56 -10.75 -0.04 0 0 Z " fill="#CB1259" transform="translate(591.875,571.6875)"/>
    </g>
    <g id="t10-web-layer-026" data-module="face-detail" data-component="face-detail" data-part="face-detail source layer 026" data-color-family="purple" data-source-layer="026" inkscape:groupmode="layer" inkscape:label="026 · face-detail · face-detail source layer 026">
      <path id="t10-web-shape-026" d="M0 0 C4.6 1.84 6.58 4.76 9 9 C11.04 17.15 10.87 25.17 7.32 32.86 C4.98 36.65 3.08 38.06 -1 40 C-4.31 40.47 -6.88 40.21 -10 39 C-14.99 35.23 -17.4 29.95 -19 24 C-19.82 16.83 -19.19 10.04 -14.56 4.17 C-9.92 -0.44 -6.4 -0.82 0 0 Z " fill="#072E55" transform="translate(656,518)"/>
    </g>
    <g id="t10-web-layer-027" data-module="face-detail" data-component="face-detail" data-part="face-detail source layer 027" data-color-family="purple" data-source-layer="027" inkscape:groupmode="layer" inkscape:label="027 · face-detail · face-detail source layer 027">
      <path id="t10-web-shape-027" d="M0 0 C4.86 0.35 6.66 1.16 10.31 4.31 C15.67 11.4 16.18 17.61 15.31 26.31 C13.7 31.55 11.48 35.24 7.44 38.94 C3.64 40.61 1.42 40.97 -2.69 40.31 C-7.83 37.29 -10.05 33.6 -12 28.13 C-13.84 20.6 -13.7 13.09 -9.69 6.31 C-7.06 3.44 -7.06 3.44 -4.69 1.31 C-3.69 0.31 -3.69 0.31 0 0 Z " fill="#082E54" transform="translate(531.6875,516.6875)"/>
    </g>
    <g id="t10-web-layer-028" data-module="right-hand" data-component="right-hand" data-part="right-hand source layer 028" data-color-family="skin" data-source-layer="028" inkscape:groupmode="layer" inkscape:label="028 · right-hand · right-hand source layer 028">
      <path id="t10-web-shape-028" d="M0 0 C-0.63 3.95 -1.86 7.2 -3.56 10.81 C-4.02 11.79 -4.47 12.76 -4.94 13.77 C-5.12 14.14 -5.12 14.14 -6 16 C-6.16 15.67 -6.16 15.67 -7 14 C-7.72 14.29 -8.44 14.58 -9.18 14.88 C-17.49 17.75 -25.07 18.41 -33.81 18.44 C-34.34 18.44 -34.34 18.44 -37.03 18.47 C-45.27 18.38 -52.73 17.2 -59.56 12.19 C-60.22 11.73 -60.89 11.27 -61.57 10.79 C-63.6 8.24 -63.1 6.18 -63 3 C-62.42 3.01 -62.42 3.01 -59.51 3.05 C-55.14 3.1 -50.78 3.14 -46.42 3.16 C-44.54 3.18 -42.67 3.2 -40.8 3.23 C-29.71 3.38 -19.32 2.92 -8.45 0.65 C-5.51 0.1 -2.97 -0.14 0 0 Z " fill="#FDC59B" transform="translate(658,636)"/>
    </g>
    <g id="t10-web-layer-029" data-module="ground-detail" data-component="ground-detail" data-part="ground-detail source layer 029" data-color-family="red" data-source-layer="029" inkscape:groupmode="layer" inkscape:label="029 · ground-detail · ground-detail source layer 029">
      <path id="t10-web-shape-029" d="M0 0 C2.75 -0.31 2.75 -0.31 6 0 C9.98 4.12 12.49 9.25 15.19 14.25 C19.89 22.89 19.89 22.89 21 24 C21.16 25.98 21.16 25.98 22 36 C11.11 36 0.22 36 -11 36 C-10.34 32.02 -9.8 29.05 -8.48 25.39 C-8.18 24.55 -7.88 23.71 -7.57 22.85 C-7.26 21.99 -6.95 21.13 -6.62 20.25 C-4.21 13.55 -1.98 6.84 0 0 Z " fill="#B51260" transform="translate(623,875)"/>
    </g>
    <g id="t10-web-layer-030" data-module="fine-detail" data-component="fine-detail" data-part="fine-detail source layer 030" data-color-family="red" data-source-layer="030" inkscape:groupmode="layer" inkscape:label="030 · fine-detail · fine-detail source layer 030">
      <path id="t10-web-shape-030" d="M0 0 C1.32 0.33 2.64 0.66 4 1 C3.38 4.86 2.75 8.71 2.12 12.56 C1.95 13.65 1.78 14.73 1.6 15.85 C0.69 21.36 -0.36 26.65 -2 32 C-2.38 33.7 -2.73 35.41 -3.06 37.12 C-3.14 37.53 -3.14 37.53 -3.54 39.57 C-4 42 -4 42 -4.25 44.68 C-4.49 45.45 -4.74 46.21 -5 47 C-8.44 48.74 -11.3 49.26 -15.12 49.27 C-16.08 49.27 -17.03 49.27 -18.02 49.27 C-19 49.27 -19.99 49.26 -21 49.25 C-21.49 49.25 -21.49 49.25 -23.98 49.27 C-24.46 49.27 -24.46 49.27 -26.88 49.27 C-27.74 49.26 -28.6 49.26 -29.49 49.26 C-32.58 48.94 -35.74 48.26 -38 46 C-38.04 43.33 -38.04 40.67 -38 38 C-37.33 37.99 -36.67 37.97 -35.98 37.96 C-32.95 37.88 -29.91 37.78 -26.88 37.69 C-26.35 37.68 -26.35 37.68 -23.7 37.62 C-12.22 37.22 -12.22 37.22 -8 33 C-8.04 32.31 -8.04 32.31 -8.25 28.81 C-8.35 23.68 -6.34 21.84 -3 18 C-2.43 13.25 -2.83 11.34 -5 7 C-4.01 6.34 -3.02 5.68 -2 5 C-0.81 2.38 -0.81 2.38 0 0 Z " fill="#B0135D" transform="translate(492,711)"/>
    </g>
    <g id="t10-web-layer-031" data-module="face-detail" data-component="face-detail" data-part="face-detail source layer 031" data-color-family="purple" data-source-layer="031" inkscape:groupmode="layer" inkscape:label="031 · face-detail · face-detail source layer 031">
      <path id="t10-web-shape-031" d="M0 0 C0.48 0 0.48 0 2.93 0.02 C12.22 0.22 20.22 1.77 27.12 8.44 C26.79 9.76 26.47 11.08 26.12 12.44 C19.83 11.77 13.82 10.29 8.12 7.44 C-2.23 6.8 -11.51 6.86 -21.31 10.66 C-23.88 11.44 -23.88 11.44 -27.88 10.44 C-27.88 9.45 -27.88 8.46 -27.88 7.44 C-18.54 2.51 -10.58 -0.11 0 0 Z " fill="#0F3154" transform="translate(661.875,482.5625)"/>
    </g>
    <g id="t10-web-layer-032" data-module="fine-detail" data-component="fine-detail" data-part="fine-detail source layer 032" data-color-family="red" data-source-layer="032" inkscape:groupmode="layer" inkscape:label="032 · fine-detail · fine-detail source layer 032">
      <path id="t10-web-shape-032" d="M0 0 C-0.03 8.92 -1.67 16.65 -7 24 C-8.32 24.33 -9.64 24.66 -11 25 C-13.93 21.64 -14.96 18.4 -16.12 14.12 C-16.46 12.93 -16.79 11.74 -17.13 10.51 C-17.91 7.34 -18.52 4.22 -19 1 C-12.63 0.04 -6.44 -0.11 0 0 Z " fill="#B10C5C" transform="translate(915,699)"/>
    </g>
    <g id="t10-web-layer-033" data-module="face-detail" data-component="face-detail" data-part="face-detail source layer 033" data-color-family="purple" data-source-layer="033" inkscape:groupmode="layer" inkscape:label="033 · face-detail · face-detail source layer 033">
      <path id="t10-web-shape-033" d="M0 0 C0 1.32 0 2.64 0 4 C-5.09 3.45 -9.72 2.27 -14.57 0.72 C-19.25 -0.67 -23.55 -1.16 -28.44 -1.19 C-28.98 -1.19 -28.98 -1.19 -31.75 -1.23 C-35.14 -0.99 -37.81 -0.15 -41 1 C-43.88 1.12 -43.88 1.12 -46 1 C-45 -3 -45 -3 -43.31 -4.62 C-29.18 -13.03 -13.33 -6.66 0 0 Z " fill="#163759" transform="translate(558,490)"/>
    </g>
    <g id="t10-web-layer-034" data-module="fine-detail" data-component="fine-detail" data-part="fine-detail source layer 034" data-color-family="skin" data-source-layer="034" inkscape:groupmode="layer" inkscape:label="034 · fine-detail · fine-detail source layer 034">
      <path id="t10-web-shape-034" d="M0 0 C1.55 0.15 3.11 0.25 4.67 0.32 C5.11 0.34 5.11 0.34 7.37 0.44 C7.84 0.46 7.84 0.46 10.19 0.56 C11.13 0.61 12.07 0.65 13.04 0.69 C15.36 0.8 17.68 0.9 20 1 C20 1.33 20 1.66 20 2 C16.53 2.16 16.53 2.16 -1 3 C-1 4.32 -1 5.64 -1 7 C-2.12 7.13 -3.24 7.27 -4.39 7.4 C-5.85 7.58 -7.31 7.76 -8.81 7.94 C-10.26 8.11 -11.71 8.29 -13.21 8.46 C-17 9 -17 9 -20 10 C-22.26 8.82 -22.26 8.82 -24.69 7.12 C-25.5 6.57 -26.3 6.02 -27.14 5.45 C-27.75 4.97 -28.37 4.49 -29 4 C-29 3.67 -29 3.34 -29 3 C-27.96 2.96 -26.92 2.93 -25.85 2.89 C-18.74 2.55 -6.19 -2.06 0 0 Z " fill="#F0D1DE" transform="translate(776,621)"/>
    </g>
    <g id="t10-web-layer-035" data-module="fine-detail" data-component="fine-detail" data-part="fine-detail source layer 035" data-color-family="purple" data-source-layer="035" inkscape:groupmode="layer" inkscape:label="035 · fine-detail · fine-detail source layer 035">
      <path id="t10-web-shape-035" d="M0 0 C1.32 0.33 2.64 0.66 4 1 C3.41 4.88 2.8 8.75 2.19 12.62 C2.02 13.72 1.86 14.81 1.69 15.94 C0.8 21.45 -0.04 26.16 -3 31 C-3.99 31 -4.98 31 -6 31 C-7.31 27.88 -7.31 27.88 -8 24 C-6.38 21.96 -4.71 19.96 -3 18 C-2.43 13.25 -2.83 11.34 -5 7 C-4.01 6.34 -3.02 5.68 -2 5 C-0.81 2.38 -0.81 2.38 0 0 Z " fill="#18385D" transform="translate(492,711)"/>
    </g>
    <g id="t10-web-layer-036" data-module="fine-detail" data-component="fine-detail" data-part="fine-detail source layer 036" data-color-family="red" data-source-layer="036" inkscape:groupmode="layer" inkscape:label="036 · fine-detail · fine-detail source layer 036">
      <path id="t10-web-shape-036" d="M0 0 C4 1 4 1 6.19 3.69 C7.97 6.94 8.65 9.33 9 13 C4.04 14.32 -0.91 14.09 -6 14 C-5.35 8.53 -3.97 3.97 0 0 Z " fill="#B71660" transform="translate(903,634)"/>
    </g>
    <g id="t10-web-layer-037" data-module="fine-detail" data-component="fine-detail" data-part="fine-detail source layer 037" data-color-family="light-neutral" data-source-layer="037" inkscape:groupmode="layer" inkscape:label="037 · fine-detail · fine-detail source layer 037">
      <path id="t10-web-shape-037" d="M0 0 C0.6 0.01 0.6 0.01 3.62 0.04 C4.22 0.04 4.22 0.04 7.25 0.06 C8.18 0.07 9.1 0.09 10.06 0.1 C5.36 5.76 0.31 10.95 -4.94 16.1 C-6.44 13.11 -5.59 10.8 -5.07 7.54 C-4.88 6.36 -4.7 5.18 -4.51 3.97 C-3.75 0.12 -3.75 0.12 0 0 Z " fill="#E3EAEF" transform="translate(506.94140625,657.90234375)"/>
    </g>
    <g id="t10-web-layer-038" data-module="fine-detail" data-component="fine-detail" data-part="fine-detail source layer 038" data-color-family="red" data-source-layer="038" inkscape:groupmode="layer" inkscape:label="038 · fine-detail · fine-detail source layer 038">
      <path id="t10-web-shape-038" d="M0 0 C2 2 2 2 2.06 6.25 C1.55 10.09 0.57 11.97 -2.31 14.56 C-6 17 -6 17 -10 17 C-10.73 14.75 -10.73 14.75 -11 12 C-9.45 9.9 -9.45 9.9 -7.25 7.94 C-4.5 5.44 -2.14 3.05 0 0 Z " fill="#BF1660" transform="translate(508,724)"/>
    </g>
    <g id="t10-web-layer-039" data-module="face-detail" data-component="face-detail" data-part="face-detail source layer 039" data-color-family="purple" data-source-layer="039" inkscape:groupmode="layer" inkscape:label="039 · face-detail · face-detail source layer 039">
      <path id="t10-web-shape-039" d="M0 0 C-0.47 0.11 -0.47 0.11 -2.88 0.69 C-3.91 1.12 -4.94 1.55 -6 2 C-6.27 2.8 -6.54 3.61 -6.81 4.44 C-8 7 -8 7 -9.97 8.03 C-14.34 9.57 -16.36 10.16 -21 9 C-21 8.01 -21 7.02 -21 6 C-6.53 -1.63 -6.53 -1.63 0 0 Z " fill="#214466" transform="translate(655,484)"/>
    </g>
    <g id="t10-web-layer-040" data-module="left-hand" data-component="left-hand" data-part="left-hand source layer 040" data-color-family="skin" data-source-layer="040" inkscape:groupmode="layer" inkscape:label="040 · left-hand · left-hand source layer 040">
      <path id="t10-web-shape-040" d="M0 0 C8.67 -0.19 16.61 -0.26 25 2 C27.33 2.36 29.66 2.7 32 3 C32 4.65 32 6.3 32 8 C23 5 23 5 20.25 3.94 C16.22 2.77 12.29 2.54 8.12 2.38 C7.34 2.34 6.56 2.3 5.75 2.26 C3.83 2.16 1.92 2.08 0 2 C0 1.34 0 0.68 0 0 Z " fill="#FDCDA5" transform="translate(456,693)"/>
    </g>
    <g id="t10-web-layer-041" data-module="right-hand" data-component="right-hand" data-part="right-hand source layer 041" data-color-family="skin" data-source-layer="041" inkscape:groupmode="layer" inkscape:label="041 · right-hand · right-hand source layer 041">
      <path id="t10-web-shape-041" d="M0 0 C1.55 0.15 3.11 0.25 4.67 0.32 C5.11 0.34 5.11 0.34 7.37 0.44 C7.84 0.46 7.84 0.46 10.19 0.56 C11.13 0.61 12.07 0.65 13.04 0.69 C15.36 0.8 17.68 0.9 20 1 C20 1.33 20 1.66 20 2 C16.53 2.16 16.53 2.16 -1 3 C-1 3.66 -1 4.32 -1 5 C-5.79 6.6 -8.59 5.16 -13 3 C-4.2 -1.4 -4.2 -1.4 0 0 Z " fill="#EE7CA0" transform="translate(776,621)"/>
    </g>
    <g id="t10-web-layer-042" data-module="held-prop" data-component="held-prop" data-part="held-prop source layer 042" data-color-family="skin" data-source-layer="042" inkscape:groupmode="layer" inkscape:label="042 · held-prop · held-prop source layer 042">
      <path id="t10-web-shape-042" d="M0 0 C0.33 0 0.66 0 1 0 C0.81 11.04 -1.59 20.61 -5 31 C-5.99 31 -6.98 31 -8 31 C-6.69 24.58 -4.92 18.42 -2.95 12.18 C-1.74 8.15 -0.84 4.12 0 0 Z " fill="#FDCCA5" transform="translate(953,600)"/>
    </g>
    <g id="t10-web-layer-043" data-module="left-hand" data-component="left-hand" data-part="left-hand source layer 043" data-color-family="skin" data-source-layer="043" inkscape:groupmode="layer" inkscape:label="043 · left-hand · left-hand source layer 043">
      <path id="t10-web-shape-043" d="M0 0 C20.44 -0.65 20.44 -0.65 29 3 C29.33 3.5 29.33 3.5 31 6 C29.58 5.69 28.16 5.39 26.7 5.07 C21.11 3.95 15.55 3.36 9.88 2.88 C8.92 2.79 7.96 2.7 6.98 2.61 C4.65 2.4 2.33 2.2 0 2 C0 1.34 0 0.68 0 0 Z " fill="#FDD0A9" transform="translate(454,713)"/>
    </g>
  </g>
</svg>
