<?xml version="1.0" encoding="UTF-8"?>
<!-- Full release candidate: geometry and fills are preserved; approved semantic occlusion corrections are applied against the v1.0 PNG reference. -->
<svg xmlns="http://www.w3.org/2000/svg" xmlns:inkscape="http://www.inkscape.org/namespaces/inkscape" version="1.1" width="512" height="512" viewBox="222 205 890 890" role="img" aria-labelledby="t16-web-title t16-web-desc" preserveAspectRatio="xMidYMid meet" lang="en" xml:lang="en" data-character-id="T16" data-artwork-version="1.0" data-svg-build="1.0-rc3" data-background-policy="transparent-master-light-background-preferred">
  <title id="t16-web-title">Tyrant</title>
  <desc id="t16-web-desc">A calm tyrant in a laurel crown sits on a throne and presses its single large button.</desc>
  
  <g id="t16-web-artwork" data-role="artwork">
    <g id="t16-web-layer-001" data-module="shared-structure" data-component="shared-structure" data-part="shared-structure source layer 001" data-color-family="skin" data-source-layer="001" inkscape:groupmode="layer" inkscape:label="001 · shared-structure · shared-structure source layer 001">
      <path id="t16-web-shape-001" d="M0 0 C3.81 3.29 7.45 6.57 10.28 10.77 C10.28 11.43 10.28 12.09 10.28 12.77 C10.96 12.87 11.64 12.97 12.34 13.08 C30.44 17.31 46.43 35.48 56.03 50.71 C62.9 62.67 67.32 75.12 69.28 88.77 C70.6 88.77 71.92 88.77 73.28 88.77 C73.42 89.23 73.42 89.23 74.12 91.57 C74.48 92.77 74.85 93.97 75.22 95.2 C75.58 96.4 75.94 97.59 76.31 98.82 C77.28 101.77 77.28 101.77 78.28 102.77 C78.52 104.95 78.69 107.14 78.84 109.33 C78.89 109.93 78.89 109.93 79.1 112.96 C79.16 113.88 79.22 114.81 79.28 115.77 C80.27 115.44 81.26 115.11 82.28 114.77 C84.39 121.1 84.01 126.98 81.16 133.02 C78.74 137.37 76.08 140.55 72.28 143.77 C71.62 143.77 70.96 143.77 70.28 143.77 C70.28 146.74 70.28 149.71 70.28 152.77 C69.29 152.44 68.3 152.11 67.28 151.77 C64.89 160.11 62.95 168.52 61.16 177.02 C60.89 178.24 60.63 179.47 60.36 180.73 C59.15 186.39 57.98 192.01 57.28 197.77 C58.6 198.43 59.92 199.09 61.28 199.77 C69.11 206.77 72.33 214.45 72.91 224.79 C73.24 238.61 69.46 249.39 60.28 260.02 C50.91 269.45 40.03 271.93 27.28 273.77 C27.88 274.16 28.49 274.56 29.11 274.97 C29.91 275.5 30.71 276.03 31.53 276.58 C32.32 277.1 33.11 277.62 33.92 278.16 C34.31 278.43 34.31 278.43 36.28 279.77 C37.03 280.24 37.77 280.71 38.54 281.2 C40.28 282.77 40.28 282.77 40.91 287.02 C40.69 293.19 38.27 298.38 35.79 303.96 C34.1 308.23 33.18 312.27 32.28 316.77 C32.56 316.92 32.56 316.92 34 317.68 C70.59 337.16 104.41 361.29 136.28 387.77 C138.11 389.27 139.95 390.77 141.78 392.27 C142.69 393.01 143.59 393.75 144.53 394.52 C146.37 396.02 148.22 397.52 150.07 399.02 C155.54 403.45 160.85 408 166.04 412.75 C167.95 414.47 169.9 416.1 171.91 417.7 C172.69 418.38 173.47 419.06 174.28 419.77 C174.28 420.43 174.28 421.09 174.28 421.77 C173.24 422.26 172.2 422.76 171.13 423.27 C145.1 435.87 125.74 455.57 115.64 483.04 C110.39 498.6 110.39 498.6 111.28 504.77 C113.4 507.43 116 509.35 118.72 511.39 C119.47 511.98 120.23 512.58 121.01 513.19 C123.41 515.07 125.84 516.92 128.28 518.77 C129.92 520.02 131.56 521.27 133.2 522.53 C135.49 524.28 137.79 526.03 140.1 527.77 C141.84 529.08 143.56 530.42 145.28 531.77 C145.28 532.1 145.28 532.43 145.28 532.77 C125.48 532.77 105.68 532.77 85.28 532.77 C84.84 560.7 84.84 560.7 84.71 569.53 C84.68 571.83 84.64 574.12 84.6 576.42 C84.58 577.62 84.56 578.83 84.55 580.07 C84.53 581.2 84.51 582.34 84.49 583.51 C84.47 584.5 84.46 585.5 84.44 586.52 C84.28 588.77 84.28 588.77 83.28 589.77 C80.99 589.85 78.7 589.87 76.4 589.86 C75.01 589.86 73.61 589.86 72.17 589.85 C70.7 589.85 69.23 589.84 67.72 589.83 C66.24 589.82 64.77 589.82 63.25 589.81 C59.6 589.8 55.94 589.79 52.28 589.77 C52.45 590.82 52.61 591.87 52.78 592.95 C53.18 595.99 53.38 598.74 53.31 601.79 C53.3 602.71 53.28 603.64 53.27 604.59 C53.25 605.58 53.24 606.56 53.22 607.58 C53.12 617.68 53.65 627.63 54.57 637.68 C55.2 644.73 55.39 651.69 55.28 658.77 C53.07 657.27 50.85 655.77 48.64 654.27 C40.79 649.26 31.52 649.88 22.52 651.16 C11.24 654.3 3.65 663.97 -1.97 673.64 C-3.72 677.77 -3.72 677.77 -5.72 687.77 C18.37 687.77 42.46 687.77 67.28 687.77 C68.28 697.77 68.28 697.77 66.91 700.83 C66.06 701.83 65.21 702.84 64.28 703.77 C62.16 703.87 60.03 703.9 57.91 703.91 C56.54 703.92 55.17 703.92 53.75 703.93 C52.24 703.93 50.72 703.93 49.21 703.93 C47.65 703.94 46.09 703.94 44.53 703.94 C41.24 703.95 37.94 703.95 34.65 703.95 C31.32 703.95 27.98 703.96 24.65 703.97 C6.43 704.05 -11.61 703.95 -29.72 701.77 C-30.12 701.73 -30.12 701.73 -32.18 701.56 C-38.4 701.03 -38.4 701.03 -41.72 698.27 C-42.38 697.44 -43.04 696.62 -43.72 695.77 C-44.05 695.44 -44.38 695.11 -44.72 694.77 C-45.03 692.5 -45.29 690.23 -45.53 687.95 C-46.46 679.56 -47.6 671.19 -48.78 662.83 C-48.87 662.2 -48.87 662.2 -49.31 659.04 C-49.39 658.45 -49.39 658.45 -49.82 655.49 C-49.97 654.43 -50.12 653.38 -50.27 652.29 C-50.72 649.77 -50.72 649.77 -51.72 647.77 C-51.98 646.07 -52.21 644.37 -52.4 642.67 C-52.46 642.16 -52.46 642.16 -52.78 639.55 C-53.03 637.39 -53.28 635.23 -53.53 633.08 C-54.21 627.33 -55.09 621.72 -56.28 616.06 C-56.94 612.61 -57.18 609.14 -57.47 605.64 C-58.49 597.43 -60.33 593.19 -66.81 588.14 C-81.8 578.19 -99.86 575.8 -117.28 578.89 C-129.15 581.57 -141.16 585.74 -148.72 595.77 C-149.76 598.64 -149.76 598.64 -150.52 602.09 C-150.85 603.51 -151.18 604.93 -151.51 606.39 C-151.7 607.22 -151.88 608.05 -152.07 608.91 C-152.82 612.21 -153.59 615.5 -154.37 618.79 C-156.34 627.09 -158.28 635.4 -160.22 643.7 C-160.89 646.57 -161.56 649.44 -162.23 652.3 C-162.56 653.7 -162.88 655.09 -163.22 656.52 C-163.86 659.26 -164.5 662 -165.14 664.73 C-166.44 670.26 -167.74 675.79 -168.94 681.34 C-169.11 682.13 -169.29 682.92 -169.46 683.74 C-169.89 685.69 -170.31 687.64 -170.72 689.59 C-172.28 694.54 -174.39 697.88 -178.72 700.77 C-180.95 701.12 -183.2 701.38 -185.45 701.58 C-186.81 701.71 -188.17 701.83 -189.58 701.96 C-190.29 702.02 -190.29 702.02 -193.91 702.33 C-195.28 702.45 -196.66 702.58 -198.08 702.71 C-202.29 703.08 -206.51 703.43 -210.72 703.77 C-211.99 703.87 -213.26 703.97 -214.57 704.07 C-224.97 704.82 -235.33 704.92 -245.75 704.9 C-248.61 704.89 -251.47 704.9 -254.34 704.9 C-256.19 704.9 -258.04 704.9 -259.9 704.9 C-260.74 704.9 -261.58 704.9 -262.44 704.9 C-278.29 704.84 -278.29 704.84 -282.28 701.83 C-285.49 697.23 -284.42 694.22 -283.72 688.77 C-289.66 688.77 -295.6 688.77 -301.72 688.77 C-301.72 636.96 -301.72 585.15 -301.72 531.77 C-303.04 532.1 -304.36 532.43 -305.72 532.77 C-308.32 532.87 -310.93 532.92 -313.53 532.94 C-314.31 532.95 -315.09 532.96 -315.9 532.96 C-318.48 532.98 -321.07 532.99 -323.65 533 C-324.09 533.01 -324.09 533.01 -326.33 533.02 C-331 533.04 -335.68 533.05 -340.35 533.06 C-345.18 533.07 -350.01 533.11 -354.83 533.15 C-358.55 533.17 -362.26 533.18 -365.97 533.18 C-367.75 533.19 -369.53 533.2 -371.31 533.22 C-373.8 533.24 -376.29 533.24 -378.78 533.24 C-380.19 533.24 -381.61 533.25 -383.07 533.25 C-387.22 532.7 -388.89 531.81 -391.72 528.77 C-392.86 522.19 -393.17 514.38 -389.72 508.45 C-387.07 503.56 -386.99 499.24 -387.72 493.77 C-388.38 492.45 -389.04 491.13 -389.72 489.77 C-389.85 486.96 -389.72 484.23 -389.59 481.42 C-389.72 478.77 -389.72 478.77 -391.72 474.77 C-392.18 469.53 -392.21 466.19 -389.66 461.58 C-387.46 457.26 -387.63 456.31 -388.72 451.77 C-389.31 445.65 -389 441.22 -385.85 435.76 C-384.66 433.67 -383.8 431.56 -382.91 429.33 C-377.73 417.61 -367.46 409.02 -357.69 401.17 C-354.59 398.66 -351.56 396.1 -348.53 393.52 C-335.92 382.82 -323.03 372.57 -309.72 362.77 C-309.04 362.27 -308.37 361.77 -307.67 361.26 C-303.36 358.08 -299.05 354.91 -294.72 351.77 C-294.09 351.29 -293.45 350.82 -292.8 350.34 C-287.94 346.77 -287.94 346.77 -285.72 346.77 C-285.72 345.78 -285.72 344.79 -285.72 343.77 C-282.58 341.33 -279.47 339.65 -275.84 338.02 C-272.45 336.4 -270.32 334.46 -267.78 331.7 C-264.35 328.05 -261.61 326.75 -256.82 325.47 C-253.5 324.35 -251.28 322.1 -248.72 319.77 C-247.07 318.73 -245.42 317.71 -243.72 316.77 C-244.31 311.14 -245.77 306.28 -247.72 301.02 C-248.26 299.52 -248.8 298.03 -249.34 296.53 C-249.8 295.29 -250.25 294.05 -250.72 292.77 C-252.42 287.68 -251.84 282.93 -250.72 277.77 C-251.47 277.55 -252.22 277.33 -252.99 277.1 C-266.95 272.78 -277.05 266.26 -284.37 253.46 C-290.94 240.36 -292.77 227.88 -288.14 213.81 C-286.22 209.71 -283.6 206.95 -280.23 203.96 C-278.72 201.77 -278.72 201.77 -278.82 198.51 C-279.79 194.46 -281.06 190.63 -282.47 186.7 C-287.11 173.3 -290.01 159.5 -292.22 145.52 C-293.19 139.6 -294.74 135.28 -297.71 130.12 C-299.55 125.82 -299.11 121.35 -298.72 116.77 C-297.4 117.1 -296.08 117.43 -294.72 117.77 C-294.68 116.79 -294.64 115.81 -294.61 114.8 C-294.23 107.24 -293.56 100.8 -290.72 93.77 C-291.38 94.43 -292.04 95.09 -292.72 95.77 C-293.87 71.7 -276.6 45.88 -261.33 28.78 C-241.96 7.49 -216.17 -9.88 -188.5 -18.31 C-185.72 -19.23 -185.72 -19.23 -182.58 -20.66 C-126.98 -43.34 -47.19 -38.78 0 0 Z " fill="#FBDCC2" transform="translate(718.71875,314.234375)"/>
    </g>
    <g id="t16-web-layer-002" data-module="clothing-body" data-component="clothing-body" data-part="clothing-body source layer 002" data-color-family="light-neutral" data-source-layer="002" inkscape:groupmode="layer" inkscape:label="002 · clothing-body · clothing-body source layer 002">
      <path id="t16-web-shape-002" d="M0 0 C0.09 0.78 0.19 1.56 0.29 2.36 C2.24 18.15 4.56 33.73 7.83 49.31 C9.24 56.02 10.35 62.78 11.42 69.55 C12 73 12 73 13 77 C14.98 77.33 16.96 77.66 19 78 C19.33 77.01 19.66 76.02 20 75 C25.34 76.61 29.22 80.08 33.5 83.5 C35.11 84.77 36.73 86.05 38.34 87.32 C39.14 87.95 39.93 88.57 40.74 89.22 C43.81 91.64 46.9 94.01 50 96.38 C53.96 99.42 57.9 102.47 61.81 105.56 C62.62 106.2 63.43 106.84 64.27 107.5 C64.84 108 65.41 108.49 66 109 C66 109.33 66 109.66 66 110 C63.72 110.2 61.44 110.39 59.16 110.59 C57 111 57 111 55 113 C55.82 121.67 59.45 130.03 63.07 137.86 C64.31 140.72 65.26 143.63 66.21 146.59 C67.13 149.39 68.08 152.16 69.06 154.94 C69.22 155.4 69.22 155.4 70.04 157.71 C71 160 71 160 73 162 C72.67 162.66 72.34 163.32 72 164 C71.89 165.72 71.83 167.44 71.81 169.17 C71.79 170.25 71.78 171.32 71.76 172.43 C71.75 173.6 71.73 174.77 71.72 175.97 C71.71 176.57 71.71 176.57 71.66 179.59 C71.58 184.71 71.52 189.84 71.45 194.96 C71.4 198.7 71.34 202.43 71.28 206.16 C71.27 207.33 71.25 208.5 71.24 209.7 C71.22 210.78 71.21 211.85 71.19 212.96 C71.18 213.91 71.16 214.86 71.15 215.84 C71 218 71 218 70 219 C67.71 219.09 65.41 219.11 63.12 219.1 C62.42 219.1 62.42 219.1 58.89 219.09 C57.42 219.08 55.95 219.07 54.44 219.06 C52.96 219.06 51.49 219.05 49.97 219.05 C46.31 219.04 42.66 219.02 39 219 C39.16 220.05 39.33 221.1 39.5 222.19 C39.9 225.23 40.1 227.97 40.03 231.02 C40.01 231.95 40 232.87 39.99 233.83 C39.97 234.81 39.95 235.8 39.94 236.81 C39.84 246.91 40.37 256.86 41.29 266.92 C41.92 273.97 42.11 280.92 42 288 C39.79 286.5 37.57 285.01 35.36 283.51 C27.51 278.49 18.24 279.11 9.23 280.39 C-2.04 283.54 -9.64 293.21 -15.25 302.88 C-17 307 -17 307 -19 317 C5.09 317 29.18 317 54 317 C55 327 55 327 53.62 330.06 C52.78 331.07 51.93 332.07 51 333 C48.88 333.1 46.75 333.14 44.63 333.15 C43.26 333.15 41.89 333.16 40.47 333.16 C38.96 333.17 37.44 333.17 35.93 333.17 C34.37 333.17 32.81 333.17 31.25 333.18 C27.95 333.18 24.66 333.19 21.37 333.19 C18.04 333.19 14.7 333.19 11.37 333.21 C-6.85 333.28 -24.89 333.19 -43 331 C-43.41 330.97 -43.41 330.97 -45.46 330.8 C-51.68 330.26 -51.68 330.26 -55 327.5 C-55.66 326.67 -56.32 325.85 -57 325 C-57.33 324.67 -57.66 324.34 -58 324 C-58.32 321.73 -58.57 319.46 -58.81 317.19 C-59.74 308.79 -60.88 300.43 -62.06 292.06 C-62.15 291.44 -62.15 291.44 -62.59 288.27 C-62.76 287.1 -62.93 285.93 -63.1 284.72 C-63.25 283.67 -63.4 282.61 -63.55 281.53 C-64 279 -64 279 -65 277 C-65.27 275.31 -65.49 273.61 -65.68 271.91 C-65.75 271.39 -65.75 271.39 -66.06 268.78 C-66.31 266.63 -66.56 264.47 -66.81 262.31 C-67.49 256.57 -68.37 250.95 -69.56 245.3 C-70.22 241.85 -70.46 238.37 -70.75 234.88 C-71.77 226.67 -73.61 222.42 -80.09 217.37 C-95.08 207.42 -113.14 205.03 -130.56 208.12 C-142.43 210.81 -154.44 214.98 -162 225 C-163.04 227.88 -163.04 227.88 -163.8 231.32 C-164.13 232.74 -164.46 234.16 -164.79 235.62 C-164.89 236.04 -164.89 236.04 -165.36 238.14 C-166.1 241.44 -166.88 244.73 -167.65 248.03 C-169.62 256.33 -171.56 264.63 -173.5 272.94 C-174.17 275.8 -174.84 278.67 -175.51 281.54 C-175.84 282.93 -176.16 284.32 -176.5 285.76 C-177.14 288.5 -177.78 291.23 -178.43 293.97 C-179.72 299.5 -181.02 305.03 -182.22 310.58 C-182.39 311.37 -182.57 312.16 -182.75 312.97 C-183.17 314.92 -183.59 316.87 -184 318.82 C-185.56 323.77 -187.67 327.12 -192 330 C-194.23 330.36 -196.48 330.62 -198.73 330.82 C-200.09 330.94 -201.45 331.07 -202.86 331.19 C-203.57 331.25 -203.57 331.25 -207.19 331.56 C-208.57 331.69 -209.94 331.81 -211.37 331.94 C-215.58 332.32 -219.79 332.67 -224 333 C-225.27 333.1 -226.54 333.2 -227.85 333.31 C-238.25 334.05 -248.61 334.15 -259.03 334.13 C-261.89 334.12 -264.75 334.13 -267.62 334.14 C-269.47 334.14 -271.33 334.13 -273.18 334.13 C-274.02 334.13 -274.86 334.14 -275.72 334.14 C-291.58 334.08 -291.58 334.08 -295.56 331.06 C-298.77 326.47 -297.7 323.46 -297 318 C-302.94 318 -308.88 318 -315 318 C-315 266.19 -315 214.38 -315 161 C-316.32 161.33 -317.64 161.66 -319 162 C-321.6 162.11 -324.21 162.16 -326.81 162.18 C-327.59 162.18 -328.38 162.19 -329.18 162.2 C-331.77 162.22 -334.35 162.23 -336.93 162.24 C-337.38 162.24 -337.38 162.24 -339.61 162.25 C-344.29 162.27 -348.96 162.29 -353.63 162.3 C-358.46 162.31 -363.29 162.34 -368.11 162.38 C-371.83 162.41 -375.54 162.41 -379.25 162.42 C-381.03 162.42 -382.81 162.43 -384.59 162.45 C-387.08 162.48 -389.57 162.48 -392.06 162.47 C-393.48 162.48 -394.89 162.48 -396.35 162.49 C-400.5 161.93 -402.17 161.04 -405 158 C-406.15 151.42 -406.45 143.62 -403 137.69 C-400.35 132.8 -400.27 128.47 -401 123 C-401.66 121.68 -402.32 120.36 -403 119 C-403.13 116.2 -403 113.46 -402.88 110.66 C-403 108 -403 108 -405 104 C-405.46 98.77 -405.5 95.42 -402.94 90.81 C-400.74 86.49 -400.91 85.54 -402 81 C-402.59 74.89 -402.28 70.45 -399.13 64.99 C-397.94 62.9 -397.08 60.79 -396.19 58.56 C-392.46 50.12 -385.88 43.04 -379 37 C-378.03 36.11 -377.05 35.22 -376.05 34.3 C-370.94 30.74 -365.25 31.31 -359.25 31.44 C-358.13 31.43 -357.02 31.42 -355.87 31.4 C-340.17 31.54 -326.59 38.88 -315.32 49.55 C-308.48 56.77 -303.46 64.7 -300 74 C-299.68 74.84 -299.36 75.68 -299.03 76.55 C-295.77 86.98 -296.73 98.21 -297 109 C-289.08 103.13 -281.26 97.13 -273.5 91.05 C-272.05 89.92 -270.59 88.79 -269.13 87.66 C-267.69 86.54 -266.26 85.4 -264.85 84.24 C-259.67 80.09 -259.67 80.09 -256.25 79.63 C-254.17 80.09 -252.08 80.54 -250 81 C-246.14 75.22 -243.39 69.52 -241 63 C-237.35 64.31 -234.58 65.91 -231.5 68.25 C-218.63 77.49 -205.59 80.47 -190 79 C-185.58 77.93 -181.94 76.25 -178 74 C-176.92 73.4 -175.84 72.79 -174.73 72.17 C-168.58 68.54 -162.94 64.54 -157.45 59.99 C-154.93 57.94 -152.34 56.06 -149.69 54.19 C-145.5 51.18 -141.55 47.98 -137.62 44.62 C-137.07 44.16 -137.07 44.16 -134.27 41.82 C-131 39 -131 39 -128.2 36.14 C-118.45 27 -108.25 27.7 -95.48 27.2 C-63.82 25.36 -27.99 0 0 0 Z " fill="#E6E4E4" transform="translate(732,685)"/>
    </g>
    <g id="t16-web-layer-003" data-module="clothing-body" data-component="clothing-body" data-part="clothing-body source layer 003" data-color-family="red" data-source-layer="003" inkscape:groupmode="layer" inkscape:label="003 · clothing-body · clothing-body source layer 003">
      <path id="t16-web-shape-003" d="M0 0 C3 1 3 1 4.51 3.81 C5.04 5.01 5.58 6.2 6.12 7.44 C12.64 20.85 23.13 30.9 37.34 35.83 C40.01 36.66 42.69 37.47 45.38 38.25 C46.79 38.68 48.21 39.1 49.68 39.54 C66.8 44.57 83.91 47.27 101.59 49.61 C102.72 49.76 103.86 49.91 105.03 50.07 C105.53 50.14 105.53 50.14 108.08 50.47 C111.32 51.06 114.01 51.59 117 53 C118.8 55.79 118.8 55.79 120.25 59.34 C120.8 60.63 121.34 61.92 121.9 63.25 C122.45 64.61 123 65.97 123.56 67.38 C124.11 68.7 124.66 70.02 125.23 71.38 C126.84 75.24 128.42 79.12 130 83 C130.96 85.33 131.93 87.65 132.9 89.98 C133.31 90.95 133.71 91.92 134.13 92.92 C134.42 93.61 134.71 94.29 135 95 C137.92 91.51 139.6 87.74 141.43 83.6 C141.75 82.89 142.07 82.18 142.4 81.44 C143.76 78.41 145.11 75.37 146.45 72.33 C147.44 70.11 148.44 67.89 149.43 65.66 C150.02 64.34 150.61 63.01 151.22 61.65 C153.56 56.86 155.52 52.99 160 50 C161.97 49.68 163.95 49.44 165.94 49.25 C183.45 47.07 200.7 42.88 217.62 37.94 C218.72 37.62 219.81 37.31 220.94 36.98 C237.62 31.95 251.29 22.46 259.94 7 C260.64 5.67 261.33 4.34 262 3 C267.62 3.89 272 5.89 276 10 C278.69 17.13 274.38 24.75 271.51 31.19 C269.82 35.46 268.9 39.5 268 44 C268.28 44.15 268.28 44.15 269.72 44.91 C306.31 64.39 340.13 88.53 372 115 C373.83 116.5 375.67 118 377.5 119.5 C378.41 120.24 379.31 120.99 380.25 121.75 C382.09 123.26 383.93 124.76 385.79 126.25 C391.26 130.68 396.56 135.24 401.76 139.99 C403.67 141.71 405.62 143.33 407.62 144.94 C408.41 145.62 409.19 146.3 410 147 C410 147.66 410 148.32 410 149 C408.96 149.5 407.92 149.99 406.85 150.5 C380.82 163.1 361.46 182.8 351.36 210.27 C346.11 225.83 346.11 225.83 347 232 C349.12 234.67 351.72 236.59 354.44 238.62 C355.19 239.22 355.95 239.81 356.72 240.42 C359.13 242.31 361.56 244.16 364 246 C365.64 247.25 367.28 248.51 368.91 249.76 C371.21 251.52 373.5 253.27 375.82 255 C377.56 256.31 379.28 257.65 381 259 C381 259.33 381 259.66 381 260 C372.67 260.1 364.34 260.17 356.01 260.22 C353.18 260.24 350.34 260.27 347.51 260.3 C343.44 260.35 339.37 260.37 335.3 260.39 C334.66 260.4 334.66 260.4 331.45 260.45 C330.86 260.45 330.86 260.45 327.87 260.45 C326.83 260.46 325.79 260.47 324.72 260.48 C321.28 259.87 320.15 258.71 318 256 C316.66 252.97 316.66 252.97 315.5 249.5 C315.29 248.88 315.29 248.88 314.22 245.73 C313.82 244.5 313.42 243.27 313 242 C312.31 239.92 311.63 237.83 310.94 235.75 C310.62 234.78 310.3 233.82 309.97 232.82 C308.17 227.59 306.07 222.47 303.87 217.38 C302.81 214.47 303.05 212.92 304 210 C306.95 207.05 309.96 207.39 314 207 C304.45 199.26 294.76 191.74 284.89 184.41 C283.05 183.04 281.22 181.64 279.39 180.25 C278.32 179.42 277.24 178.6 276.12 177.75 C275.18 177.02 274.23 176.3 273.26 175.55 C271 174 271 174 269 174 C268.67 174.66 268.34 175.32 268 176 C265.19 176 265.19 176 262 175 C259.61 169.71 258.41 164.66 257.5 158.91 C257.44 158.53 257.44 158.53 257.13 156.63 C256.75 154.26 256.37 151.88 256 149.5 C255.5 146.38 255 143.27 254.5 140.16 C254.44 139.77 254.44 139.77 254.13 137.84 C253.09 131.41 251.9 125.02 250.65 118.63 C249.41 111.67 248.89 105.04 249 98 C247.84 98.64 246.67 99.28 245.48 99.94 C216.71 115.58 186.34 122.71 153.88 126.19 C153.1 126.27 152.32 126.36 151.52 126.45 C148.07 126.8 144.75 126.99 141.28 126.88 C130.27 126.66 124.55 132.27 116.82 139.34 C114.33 141.61 111.74 143.75 109.12 145.88 C108.26 146.58 107.4 147.29 106.51 148.02 C103.28 150.57 99.91 152.88 96.52 155.19 C93.79 157.15 91.25 159.27 88.69 161.44 C74.17 173.44 60.95 179.46 42.16 178.23 C37.34 177.72 33.29 176.19 29 174 C28.07 173.54 27.14 173.08 26.18 172.61 C20.33 169.58 15.18 166.05 10 162 C9.34 161.67 8.68 161.34 8 161 C7.85 161.62 7.71 162.23 7.55 162.87 C5.91 169.09 3.77 175.45 -1 180 C-4.39 180.42 -6.63 179.84 -10 179 C-12.88 180.92 -15.46 182.87 -18.12 185.06 C-19.73 186.35 -21.34 187.64 -22.95 188.92 C-23.78 189.59 -24.61 190.26 -25.46 190.95 C-29.59 194.28 -33.76 197.55 -37.94 200.81 C-38.7 201.42 -39.46 202.02 -40.25 202.64 C-45.66 206.89 -45.66 206.89 -49 208 C-48.98 207.34 -48.97 206.67 -48.95 205.99 C-48.51 184.47 -50.61 166.36 -65.19 149.5 C-70.76 143.79 -76.98 139.74 -84 136 C-84.97 135.48 -85.95 134.95 -86.95 134.41 C-94.83 130.77 -101.9 130.75 -110.44 130.88 C-111.65 130.88 -112.85 130.89 -114.1 130.9 C-117.07 130.93 -120.03 130.96 -123 131 C-119.76 127.11 -116.74 123.51 -112.69 120.44 C-108.74 117.38 -104.88 114.25 -101.04 111.05 C-92.24 103.73 -83.23 96.78 -74 90 C-72.64 88.99 -71.27 87.99 -69.91 86.98 C-66.28 84.31 -62.65 81.65 -59 79 C-58.68 78.76 -58.68 78.76 -57.08 77.57 C-52.22 74 -52.22 74 -50 74 C-50 73.01 -50 72.02 -50 71 C-46.86 68.56 -43.75 66.89 -40.12 65.25 C-36.73 63.63 -34.6 61.7 -32.06 58.94 C-28.63 55.28 -25.89 53.98 -21.1 52.71 C-17.78 51.59 -15.56 49.33 -13 47 C-11.36 45.96 -9.7 44.95 -8 44 C-8.6 38.37 -10.05 33.52 -12 28.25 C-12.54 26.76 -13.08 25.26 -13.62 23.77 C-14.08 22.52 -14.53 21.28 -15 20 C-16.18 16.46 -16.2 13.72 -16 10 C-13.58 5.15 -12.39 5.04 -7.44 3.31 C-1.05 1.05 -1.05 1.05 0 0 Z " fill="#980622" transform="translate(483,587)"/>
    </g>
    <g id="t16-web-layer-004" data-module="head-hair" data-component="head-hair" data-part="head-hair source layer 004" data-color-family="red" data-source-layer="004" inkscape:groupmode="layer" inkscape:label="004 · head-hair · head-hair source layer 004">
      <path id="t16-web-shape-004" d="M0 0 C3.81 3.29 7.45 6.57 10.28 10.77 C10.28 11.43 10.28 12.09 10.28 12.77 C10.96 12.87 11.64 12.97 12.34 13.08 C30.44 17.31 46.43 35.48 56.03 50.71 C62.9 62.67 67.32 75.12 69.28 88.77 C70.6 88.77 71.92 88.77 73.28 88.77 C73.42 89.23 73.42 89.23 74.12 91.57 C74.48 92.77 74.85 93.97 75.22 95.2 C75.58 96.4 75.94 97.59 76.31 98.82 C77.28 101.77 77.28 101.77 78.28 102.77 C78.52 104.95 78.69 107.14 78.84 109.33 C78.89 109.93 78.89 109.93 79.1 112.96 C79.16 113.88 79.22 114.81 79.28 115.77 C80.27 115.44 81.26 115.11 82.28 114.77 C84.39 121.1 84.01 126.98 81.16 133.02 C78.74 137.37 76.08 140.55 72.28 143.77 C71.62 143.77 70.96 143.77 70.28 143.77 C70.28 146.74 70.28 149.71 70.28 152.77 C69.29 152.44 68.3 152.11 67.28 151.77 C64.96 159.82 63.15 167.93 61.47 176.14 C56.56 199.48 49.67 219.82 38.28 240.77 C37.95 240.77 37.62 240.77 37.28 240.77 C37.35 239.53 37.43 238.29 37.5 237.02 C38.24 222.66 38.42 208.3 38.46 193.92 C38.47 191.75 38.48 189.59 38.49 187.42 C38.56 175.36 38.42 163.67 36.28 151.77 C36.12 150.88 35.97 150 35.81 149.09 C31.85 128.41 31.85 128.41 26.79 121.82 C25.28 119.77 25.28 119.77 24.38 117.18 C22.98 114.1 21.69 113.49 18.66 112.08 C17.84 111.68 17.02 111.29 16.18 110.88 C9.57 108.34 3.33 107.43 -3.72 107.52 C-4.13 107.52 -4.13 107.52 -6.23 107.53 C-14.16 107.66 -21.88 108.59 -29.72 109.77 C-31.47 110.01 -33.21 110.25 -34.96 110.5 C-42.23 111.51 -49.49 112.53 -56.72 113.77 C-57.64 113.92 -58.57 114.07 -59.52 114.23 C-62 114.64 -64.48 115.09 -66.95 115.55 C-97.59 120.91 -128.27 117.22 -158.66 112.19 C-203.79 104.82 -203.79 104.82 -220.05 114.1 C-230.89 122.3 -234.12 137.18 -236.72 149.77 C-236.92 150.67 -237.12 151.58 -237.33 152.52 C-241.52 172.94 -240.96 193.79 -240.84 214.52 C-240.83 217.56 -240.82 220.6 -240.82 223.64 C-240.79 231.01 -240.76 238.39 -240.72 245.77 C-243.61 242.97 -245.39 240.84 -246.87 237.08 C-247.23 236.16 -247.59 235.25 -247.97 234.3 C-248.34 233.32 -248.71 232.34 -249.09 231.33 C-249.29 230.82 -249.29 230.82 -250.27 228.27 C-254.05 218.28 -257 208.09 -259.72 197.77 C-261.31 197.72 -262.91 197.7 -264.5 197.67 C-264.94 197.66 -264.94 197.66 -267.19 197.62 C-270.55 197.81 -272.87 199.05 -275.72 200.77 C-276.38 200.77 -277.04 200.77 -277.72 200.77 C-283.46 185.27 -287.43 169.92 -290.57 153.72 C-290.76 152.72 -290.96 151.72 -291.16 150.69 C-291.53 148.78 -291.88 146.86 -292.22 144.95 C-293.05 140.43 -293.9 136.78 -296.34 132.83 C-299.25 127.47 -299.23 122.74 -298.72 116.77 C-297.4 117.1 -296.08 117.43 -294.72 117.77 C-294.68 116.79 -294.64 115.81 -294.61 114.8 C-294.23 107.24 -293.56 100.8 -290.72 93.77 C-291.05 94.1 -291.05 94.1 -292.72 95.77 C-293.87 71.7 -276.6 45.88 -261.33 28.78 C-241.96 7.49 -216.17 -9.88 -188.5 -18.31 C-185.72 -19.23 -185.72 -19.23 -182.58 -20.66 C-126.98 -43.34 -47.19 -38.78 0 0 Z " fill="#940720" transform="translate(718.71875,314.234375)"/>
    </g>
    <g id="t16-web-layer-005" data-module="legs-shoes" data-component="legs-shoes" data-part="legs-shoes source layer 005" data-color-family="red" data-source-layer="005" inkscape:groupmode="layer" inkscape:label="005 · legs-shoes · legs-shoes source layer 005">
      <path id="t16-web-shape-005" d="M0 0 C8.3 4.81 16.57 9.16 25.59 12.45 C26.3 12.72 27.02 12.99 27.75 13.26 C46.07 19.56 68.61 16.67 85.76 8.5 C93.26 4.75 100.36 0.38 107.47 -4.05 C113.68 -7.93 119.98 -11.4 126.59 -14.55 C127.34 -14.91 128.1 -15.28 128.87 -15.65 C138.23 -19.99 146.68 -22.1 157.03 -21.99 C157.53 -21.99 157.53 -21.99 160.1 -21.97 C172.26 -21.7 180.84 -18.22 189.5 -9.67 C198.26 -0.21 200.72 10.11 201.47 22.7 C202.23 34.22 203.23 45.7 204.32 57.2 C206.81 83.34 206.81 83.34 207.84 96.38 C207.92 97.36 208 98.33 208.08 99.33 C208.6 106.05 208.67 112.72 208.59 119.45 C207.48 118.7 207.48 118.7 201.95 114.95 C194.1 109.94 184.83 110.56 175.83 111.84 C164.55 114.98 156.95 124.65 151.34 134.32 C149.59 138.45 149.59 138.45 147.59 148.45 C171.68 148.45 195.77 148.45 220.59 148.45 C221.59 158.45 221.59 158.45 220.22 161.51 C219.37 162.52 218.52 163.52 217.59 164.45 C215.47 164.55 213.34 164.59 211.22 164.59 C210.53 164.6 210.53 164.6 207.06 164.61 C205.55 164.61 204.03 164.61 202.52 164.61 C200.96 164.62 199.4 164.62 197.84 164.62 C194.55 164.63 191.25 164.63 187.96 164.63 C184.63 164.63 181.29 164.64 177.96 164.65 C159.74 164.73 141.7 164.63 123.59 162.45 C122.78 162.38 121.97 162.31 121.13 162.25 C114.91 161.71 114.91 161.71 111.59 158.95 C110.93 158.12 110.27 157.3 109.59 156.45 C109.26 156.12 108.93 155.79 108.59 155.45 C108.28 153.18 108.02 150.91 107.78 148.63 C106.85 140.24 105.71 131.87 104.53 123.51 C104.35 122.26 104.18 121.01 104 119.72 C103.83 118.55 103.67 117.38 103.49 116.17 C103.34 115.12 103.19 114.06 103.04 112.97 C102.59 110.45 102.59 110.45 101.59 108.45 C101.32 106.75 101.1 105.05 100.91 103.35 C100.85 102.84 100.85 102.84 100.53 100.23 C100.28 98.07 100.03 95.92 99.78 93.76 C99.1 88.02 98.22 82.4 97.03 76.74 C96.37 73.29 96.13 69.82 95.84 66.32 C94.82 58.12 92.98 53.87 86.5 48.82 C71.51 38.87 53.45 36.48 36.03 39.57 C24.16 42.25 12.15 46.43 4.59 56.45 C3.55 59.32 3.55 59.32 2.79 62.77 C2.46 64.19 2.13 65.61 1.8 67.07 C1.7 67.48 1.7 67.48 1.24 69.59 C0.49 72.89 -0.28 76.18 -1.06 79.47 C-3.03 87.77 -4.97 96.08 -6.91 104.38 C-7.58 107.25 -8.25 110.12 -8.92 112.98 C-9.25 114.38 -9.57 115.77 -9.91 117.21 C-10.55 119.94 -11.19 122.68 -11.83 125.41 C-13.13 130.94 -14.43 136.47 -15.63 142.03 C-15.8 142.82 -15.98 143.6 -16.16 144.42 C-16.58 146.37 -17 148.32 -17.41 150.27 C-18.97 155.22 -21.08 158.56 -25.41 161.45 C-27.64 161.81 -29.89 162.06 -32.14 162.26 C-33.5 162.39 -34.86 162.51 -36.27 162.64 C-37.7 162.76 -39.12 162.88 -40.6 163.01 C-41.98 163.13 -43.35 163.26 -44.77 163.39 C-48.98 163.77 -53.2 164.11 -57.41 164.45 C-58.68 164.55 -59.95 164.65 -61.26 164.75 C-71.66 165.5 -82.02 165.6 -92.44 165.58 C-95.3 165.57 -98.16 165.58 -101.03 165.58 C-102.88 165.58 -104.73 165.58 -106.59 165.58 C-107.43 165.58 -108.27 165.58 -109.13 165.59 C-124.98 165.52 -124.98 165.52 -128.97 162.51 C-131.45 158.96 -131.67 156.78 -131.41 152.45 C-131.08 151.79 -131.08 151.79 -129.41 148.45 C-105.98 148.45 -82.55 148.45 -58.41 148.45 C-62.92 133.79 -62.92 133.79 -65.97 129.32 C-66.55 128.45 -67.13 127.58 -67.73 126.69 C-69.41 124.45 -69.41 124.45 -72.41 121.45 C-72.41 120.79 -72.41 120.13 -72.41 119.45 C-73.73 118.79 -75.05 118.13 -76.41 117.45 C-77.98 116.6 -79.54 115.75 -81.1 114.88 C-81.49 114.67 -81.49 114.67 -83.48 113.57 C-85.41 112.45 -85.41 112.45 -86.41 111.45 C-96.23 110.68 -104.09 110.57 -112.41 116.45 C-113.4 116.78 -114.39 117.11 -115.41 117.45 C-115.88 109.22 -114.94 101.31 -113.76 93.19 C-112.43 83.97 -111.41 74.71 -110.41 65.45 C-109.12 53.59 -107.76 41.75 -106.04 29.95 C-105.63 27.15 -105.31 24.39 -105.06 21.57 C-103.83 8.89 -98.33 -3.14 -88.75 -11.73 C-59.48 -34.59 -27.5 -16.06 0 0 Z " fill="#930620" transform="translate(565.408935546875,853.55322265625)"/>
    </g>
    <g id="t16-web-layer-006" data-module="clothing-body" data-component="clothing-body" data-part="clothing-body source layer 006" data-color-family="light-neutral" data-source-layer="006" inkscape:groupmode="layer" inkscape:label="006 · clothing-body · clothing-body source layer 006">
      <path id="t16-web-shape-006" d="M0 0 C0.09 0.78 0.19 1.56 0.29 2.36 C2.24 18.15 4.56 33.73 7.83 49.31 C9.24 56.02 10.35 62.78 11.42 69.55 C12 73 12 73 13 77 C13.99 77.16 13.99 77.16 19 78 C19.33 77.01 19.66 76.02 20 75 C25.34 76.61 29.22 80.08 33.5 83.5 C35.11 84.77 36.73 86.05 38.34 87.32 C39.14 87.95 39.93 88.57 40.74 89.22 C43.81 91.64 46.9 94.01 50 96.38 C53.96 99.42 57.9 102.47 61.81 105.56 C62.62 106.2 63.43 106.84 64.27 107.5 C64.84 108 65.41 108.49 66 109 C66 109.33 66 109.66 66 110 C63.72 110.2 61.44 110.39 59.16 110.59 C57 111 57 111 55 113 C55.82 121.67 59.45 130.03 63.07 137.86 C64.31 140.72 65.26 143.63 66.21 146.59 C67.13 149.39 68.08 152.16 69.06 154.94 C69.22 155.4 69.22 155.4 70.04 157.71 C71 160 71 160 73 162 C72.67 162.66 72.34 163.32 72 164 C71.89 165.72 71.83 167.44 71.81 169.17 C71.79 170.25 71.78 171.32 71.76 172.43 C71.75 173.6 71.73 174.77 71.72 175.97 C71.71 176.57 71.71 176.57 71.66 179.59 C71.58 184.71 71.52 189.84 71.45 194.96 C71.4 198.7 71.34 202.43 71.28 206.16 C71.27 207.33 71.25 208.5 71.24 209.7 C71.22 210.78 71.21 211.85 71.19 212.96 C71.18 213.91 71.16 214.86 71.15 215.84 C71 218 71 218 70 219 C67.71 219.09 65.41 219.11 63.12 219.1 C62.42 219.1 62.42 219.1 58.89 219.09 C57.42 219.08 55.95 219.07 54.44 219.06 C52.96 219.06 51.49 219.05 49.97 219.05 C46.31 219.04 42.66 219.02 39 219 C39.16 220.06 39.33 221.11 39.49 222.2 C39.89 225.15 40.12 227.87 40.1 230.84 C40.09 231.67 40.09 232.51 40.09 233.37 C40.08 234.22 40.07 235.06 40.06 235.94 C40.06 236.81 40.05 237.69 40.05 238.59 C40.04 240.73 40.02 242.86 40 245 C39.67 245 39.34 245 39 245 C38.3 238.32 37.61 231.63 36.92 224.94 C36.68 222.68 36.45 220.41 36.21 218.14 C34.99 206.48 33.79 194.85 33.24 183.13 C32.4 172.32 27.5 164.09 19.75 156.69 C15.25 152.86 10.59 150.79 5 149 C4.01 148.67 3.02 148.34 2 148 C-9.94 147.07 -22.02 146.82 -33 152 C-33.64 152.27 -33.64 152.27 -36.86 153.66 C-44.58 157.06 -51.84 160.98 -59 165.44 C-93.52 186.93 -93.52 186.93 -112 185 C-113.32 184.34 -114.64 183.68 -116 183 C-116.02 164.07 -116.04 145.14 -116.05 126.2 C-116.06 117.41 -116.06 108.62 -116.08 99.83 C-116.09 92.17 -116.09 84.51 -116.09 76.84 C-116.1 72.79 -116.1 68.73 -116.11 64.67 C-116.11 60.14 -116.11 55.61 -116.11 51.08 C-116.12 49.74 -116.12 48.4 -116.12 47.01 C-116.12 45.78 -116.12 44.54 -116.12 43.26 C-116.12 42.19 -116.12 41.12 -116.12 40.02 C-116 36.94 -115.57 34.03 -115 31 C-115.99 30.34 -116.98 29.68 -118 29 C-117.35 28.96 -116.7 28.92 -116.03 28.88 C-78.36 26.5 -33.46 0 0 0 Z " fill="#E4E3E3" transform="translate(732,685)"/>
    </g>
    <g id="t16-web-layer-007" data-module="legs-shoes" data-component="legs-shoes" data-part="legs-shoes source layer 007" data-color-family="light-neutral" data-source-layer="007" inkscape:groupmode="layer" inkscape:label="007 · legs-shoes · legs-shoes source layer 007">
      <path id="t16-web-shape-007" d="M0 0 C7.54 6.11 8.53 11.62 9.51 20.84 C10.27 27.58 11.29 33.94 12.95 40.53 C13.41 43.81 13.72 47.1 14.01 50.4 C14.82 59.27 14.82 59.27 15.95 61.53 C16.3 63.5 16.6 65.48 16.89 67.46 C17.06 68.67 17.23 69.88 17.41 71.12 C17.59 72.39 17.77 73.66 17.95 74.96 C18.13 76.2 18.31 77.43 18.49 78.71 C19.27 84.22 19.98 89.72 20.48 95.26 C20.52 95.76 20.52 95.76 20.75 98.25 C20.81 99 20.88 99.75 20.95 100.53 C4.67 100.68 -11.61 100.83 -27.89 100.97 C-35.45 101.04 -43.01 101.1 -50.57 101.18 C-57.86 101.24 -65.15 101.31 -72.43 101.37 C-75.22 101.39 -78.01 101.42 -80.8 101.45 C-84.68 101.49 -88.57 101.52 -92.46 101.55 C-93.63 101.56 -94.79 101.57 -95.99 101.59 C-97.05 101.6 -98.1 101.6 -99.19 101.61 C-99.65 101.61 -99.65 101.61 -101.98 101.63 C-104.05 101.53 -104.05 101.53 -105.05 100.53 C-104.66 92.16 -102.69 84.29 -100.64 76.18 C-99.62 72.12 -98.61 68.05 -97.61 63.98 C-97.4 63.13 -97.19 62.28 -96.98 61.41 C-94.17 50.02 -91.58 38.57 -88.97 27.13 C-88.79 26.34 -88.61 25.55 -88.42 24.73 C-87.93 22.59 -87.45 20.45 -86.96 18.31 C-84.89 9.68 -83.17 4.97 -76.05 -0.47 C-52.77 -14.47 -22.77 -16.35 0 0 Z " fill="#E3E1E1" transform="translate(653.05078125,902.47265625)"/>
    </g>
    <g id="t16-web-layer-008" data-module="left-hand" data-component="left-hand" data-part="left-hand source layer 008" data-color-family="skin" data-source-layer="008" inkscape:groupmode="layer" inkscape:label="008 · left-hand · left-hand source layer 008">
      <path id="t16-web-shape-008" d="M0 0 C11.45 0.12 26.21 4.36 36.06 10.31 C41.83 16.54 41.14 22.42 41.02 30.44 C40.96 37.01 40.96 37.01 42.06 40.31 C42.63 46.79 41.93 51.17 39.56 57.25 C37.13 63.51 36.45 68.65 37.06 75.31 C43.61 74.07 47.96 71.78 53.31 67.88 C54.01 67.38 54.7 66.89 55.41 66.39 C58.12 64.46 60.8 62.51 63.42 60.46 C65.06 59.31 65.06 59.31 67.06 59.31 C66.51 65.38 65.16 70.57 63.04 76.27 C62.74 77.09 62.44 77.91 62.13 78.76 C61.5 80.48 60.87 82.21 60.23 83.93 C59.25 86.56 58.29 89.2 57.34 91.84 C56.72 93.53 56.1 95.21 55.48 96.89 C55.2 97.68 54.92 98.46 54.62 99.27 C52.75 104.25 50.92 107.88 46.06 110.31 C43.54 110.43 41.01 110.47 38.48 110.49 C38.09 110.49 38.09 110.49 36.11 110.51 C33.51 110.53 30.92 110.54 28.32 110.55 C27.44 110.55 26.55 110.56 25.64 110.56 C20.95 110.58 16.27 110.6 11.58 110.61 C6.74 110.62 1.9 110.65 -2.95 110.69 C-6.67 110.72 -10.39 110.73 -14.11 110.73 C-15.9 110.74 -17.68 110.75 -19.47 110.77 C-21.97 110.79 -24.47 110.79 -26.97 110.78 C-28.39 110.79 -29.81 110.79 -31.27 110.8 C-35.43 110.25 -37.1 109.36 -39.94 106.31 C-41.08 99.74 -41.39 91.93 -37.94 86 C-35.28 81.11 -35.21 76.78 -35.94 71.31 C-36.6 69.99 -37.26 68.67 -37.94 67.31 C-38.07 64.51 -37.94 61.77 -37.81 58.97 C-37.94 56.31 -37.94 56.31 -39.94 52.31 C-40.4 47.08 -40.43 43.74 -37.88 39.12 C-35.68 34.8 -35.85 33.85 -36.94 29.31 C-37.58 22.65 -37.26 16.76 -32.94 11.31 C-24.15 3.13 -11.56 0.92 0 0 Z " fill="#FADBC2" transform="translate(366.9375,736.6875)"/>
    </g>
    <g id="t16-web-layer-009" data-module="head-hair" data-component="head-hair" data-part="head-hair source layer 009" data-color-family="detail" data-source-layer="009" inkscape:groupmode="layer" inkscape:label="009 · head-hair · head-hair source layer 009">
      <path id="t16-web-shape-009" d="M0 0 C11.54 2.31 20.04 7.94 26.83 17.61 C32.08 26.32 31.7 33.21 30 43 C30.7 43.25 31.4 43.5 32.12 43.75 C35.37 45.16 38.1 46.98 41 49 C40.36 47.74 39.72 46.48 39.06 45.19 C36.82 40.78 35.88 37.43 35.9 32.46 C35.9 31.92 35.9 31.92 35.91 29.21 C35.92 28.65 35.92 28.65 35.94 25.81 C35.94 24.68 35.95 23.55 35.95 22.38 C35.96 19.59 35.98 16.79 36 14 C44.25 15.47 49.37 20.82 54.31 27.38 C60.06 35.8 63.33 42.6 62 53 C61.19 55.78 60.13 58.32 59 61 C59 65 59 65 61.5 67.75 C62.33 68.49 63.15 69.24 64 70 C64.33 69.67 64.66 69.34 65 69 C64.99 66.79 64.94 64.58 64.88 62.38 C64.81 53.71 65.06 43.41 70 36 C79.85 40.93 84.58 52.72 88.38 62.56 C89.99 71.44 89.29 78.07 85 86 C84.71 86.59 84.71 86.59 83.25 89.56 C82.84 90.37 82.42 91.17 82 92 C81.34 92 80.68 92 80 92 C81.32 94.64 82.64 97.28 84 100 C84.23 98.91 84.46 97.82 84.7 96.7 C88.91 77.46 88.91 77.46 93 71 C94.32 70.67 95.64 70.34 97 70 C97.63 71.37 98.25 72.75 98.88 74.12 C99.05 74.51 99.05 74.51 99.93 76.45 C102.11 81.65 103.28 86.22 103.62 91.88 C103.66 92.45 103.66 92.45 103.85 95.37 C103.9 96.24 103.95 97.1 104 98 C104.99 97.67 105.98 97.34 107 97 C109.11 103.34 108.72 109.21 105.88 115.25 C103.46 119.61 100.8 122.79 97 126 C96.34 126 95.68 126 95 126 C95 128.97 95 131.94 95 135 C94.01 134.67 93.02 134.34 92 134 C89.68 142.06 87.87 150.16 86.19 158.38 C81.28 181.71 74.39 202.06 63 223 C62.67 223 62.34 223 62 223 C62.07 221.76 62.14 220.53 62.22 219.25 C62.96 204.89 63.14 190.53 63.18 176.15 C63.18 173.99 63.19 171.82 63.21 169.65 C63.28 157.59 63.14 145.91 61 134 C60.84 133.12 60.69 132.24 60.53 131.33 C56.56 110.59 56.56 110.59 51.44 103.99 C50 102 50 102 49 98 C50.81 96.19 53.43 96.74 55.88 96.69 C66.05 96.78 73.71 100.37 82 106 C81.71 105.37 81.42 104.75 81.12 104.1 C80.94 103.69 80.94 103.69 80 101.62 C79.81 101.22 79.81 101.22 78.88 99.16 C78 97 78 97 78 95 C77.33 95.16 76.66 95.31 75.97 95.48 C65.08 97.39 54.54 96.85 45 91 C39.73 86.96 34.78 82.49 31 77 C31.16 76.5 31.16 76.5 32 74 C42.94 71.86 52.61 70.29 63 75 C62.67 74.01 62.34 73.02 62 72 C61.5 71.84 61.5 71.84 59 71 C58.46 70.3 57.93 69.6 57.38 68.88 C55 67 55 67 50.62 67.06 C47.63 67.53 45.88 68.07 43.19 69.56 C37.05 72.33 29.82 71.8 23.44 69.88 C16.62 67.24 9.1 64.28 5 58 C14.64 51.46 23.53 50.61 35 50 C33.76 49.11 32.51 48.24 31.25 47.38 C30.55 46.89 29.86 46.4 29.14 45.9 C28.43 45.6 27.73 45.31 27 45 C23 47 23 47 21.06 48.5 C13.78 53.79 3.61 52.93 -5 52 C-11.7 50.24 -16.72 47.43 -22 43 C-21 40 -21 40 -18.16 38.25 C-11.46 34.93 -5.41 32.15 2 31 C1.67 30.67 1.34 30.34 1 30 C-1.21 30.06 -3.43 30.13 -5.64 30.22 C-16.7 30.6 -23.79 29.44 -32.33 21.96 C-34.33 20.04 -36.2 18.1 -38 16 C-38.28 15.67 -38.28 15.67 -39.72 14.01 C-41 12 -41 12 -41 8 C-33.27 5.42 -21.79 5.52 -14.38 9.06 C-12.11 10.45 -12.11 10.45 -10 12 C-9.63 12.27 -9.63 12.27 -7.73 13.64 C-4.16 16.49 -2.25 18.4 -0.5 22.69 C1.65 27.43 4.27 28.06 9 30 C8.52 29.24 8.04 28.48 7.54 27.69 C1.76 18.25 -0.35 11.07 0 0 Z " fill="#B89956" transform="translate(694,332)"/>
    </g>
    <g id="t16-web-layer-010" data-module="action-cue" data-component="action-cue" data-part="action-cue source layer 010" data-color-family="red" data-source-layer="010" inkscape:groupmode="layer" inkscape:label="010 · action-cue · action-cue source layer 010">
      <path id="t16-web-shape-010" d="M0 0 C18.01 0.07 34.72 7.48 47.8 19.62 C50.98 23.06 53.07 26.76 55 31 C55.16 31.33 55.16 31.33 56 33 C56.67 44.94 56.96 54.59 49.06 64.06 C35.81 77.76 18.68 83.65 -0.12 84.24 C-21.26 84.58 -43.33 82.38 -59.39 66.86 C-68.62 56.22 -69.96 46.69 -69 33 C-66.75 22.65 -60.19 16.34 -51.64 10.63 C-42.87 5.21 -32.61 -0.46 -22 1 C-20.31 3.25 -20.31 3.25 -19 6 C-15.97 9.21 -14.43 9.94 -10 10.56 C-6 10 -6 10 -3.06 7.81 C-0.98 4.97 -0.54 3.39 0 0 Z " fill="#910720" transform="translate(951,880)"/>
    </g>
    <g id="t16-web-layer-011" data-module="head-hair" data-component="head-hair" data-part="head-hair source layer 011" data-color-family="detail" data-source-layer="011" inkscape:groupmode="layer" inkscape:label="011 · head-hair · head-hair source layer 011">
      <path id="t16-web-shape-011" d="M0 0 C0.49 11.22 -3.65 21.63 -11 30 C-7.32 29.08 -5.18 27.92 -2 26 C-1.34 26 -0.68 26 0 26 C0.04 25.15 0.08 24.31 0.12 23.44 C1.51 17.98 4.69 14.55 9.26 11.48 C15.36 7.99 20.35 6.85 27.44 6.81 C28.74 6.8 30.03 6.78 31.37 6.77 C34.75 6.98 36.98 7.53 40 9 C37.76 17.97 31.17 23.03 23.55 27.69 C17.58 30.76 11.33 30.03 4.82 29.87 C-1.68 29.79 -1.68 29.79 -5 32 C-4.21 32.06 -3.42 32.13 -2.61 32.19 C6.5 33.22 13.21 36.23 21 41 C18.7 45.59 17.56 46.07 13.06 48.19 C12 48.7 10.94 49.21 9.85 49.73 C4.76 52 0.31 52.25 -5.19 52.31 C-6.01 52.34 -6.84 52.37 -7.69 52.4 C-13.88 52.46 -17.7 51.22 -23 48 C-23.99 47.01 -24.98 46.02 -26 45 C-29.57 45.89 -30.96 46.47 -33.75 48.56 C-34.82 49.37 -35.89 50.17 -37 51 C-36.19 50.97 -35.38 50.93 -34.54 50.89 C-23.83 50.63 -15.07 52.16 -6 58 C-9.66 62.03 -13.17 64.38 -18.06 66.75 C-18.67 67.05 -18.67 67.05 -21.72 68.55 C-29.4 71.95 -39 72.51 -47.07 70.07 C-48.72 69.36 -50.35 68.6 -51.95 67.78 C-54 67 -54 67 -58 68 C-60.14 69.85 -60.14 69.85 -62.25 72.06 C-62.96 72.8 -63.66 73.53 -64.39 74.29 C-64.92 74.85 -65.45 75.42 -66 76 C-65.53 75.76 -65.53 75.76 -63.16 74.52 C-58.05 72.65 -53.82 72.59 -48.44 72.69 C-47.52 72.68 -46.6 72.68 -45.65 72.68 C-40.71 72.72 -36.63 73.07 -32 75 C-37.25 85.5 -45.78 90.98 -56.44 95.44 C-64.05 96.64 -71.42 96.26 -79 95 C-80.98 98.96 -82.96 102.92 -85 107 C-83.39 105.91 -81.78 104.81 -80.12 103.69 C-71.14 98.01 -63.55 96.46 -53 97 C-52.67 97.66 -52.34 98.32 -52 99 C-56.55 110.66 -65.33 120.86 -76.75 126.05 C-82.57 127.75 -87.98 127.36 -94 127 C-94.99 132.28 -95.98 137.56 -97 143 C-97.66 142.67 -98.32 142.34 -99 142 C-99.03 140.08 -99.05 138.17 -99.06 136.25 C-99.07 135.72 -99.07 135.72 -99.1 133.02 C-99 130 -99 130 -98 126 C-99.65 125.01 -101.3 124.02 -103 123 C-103.33 123.33 -103.33 123.33 -105 125 C-105.25 124.2 -105.5 123.39 -105.75 122.56 C-107 119 -107 119 -108.02 116.98 C-111.12 110.87 -111.46 105.8 -111 99 C-109.68 99.33 -108.36 99.66 -107 100 C-106.97 99.03 -106.95 98.07 -106.92 97.07 C-106.61 89.83 -106.08 83.73 -102.94 77.15 C-101.91 74.78 -101.43 72.54 -101 70 C-100.5 69.84 -100.5 69.84 -98 69 C-91.86 79.42 -88.37 88.97 -87 101 C-84.88 97.75 -84.88 97.75 -83 94 C-85 90 -85 90 -87.06 87 C-91.49 80.14 -90.92 70.92 -90 63 C-87.33 52.79 -81.3 43.56 -74 36 C-73.01 36 -72.02 36 -71 36 C-67.15 47.82 -65.08 60.69 -68 73 C-64.86 70.26 -62.16 67.58 -60 64 C-60.16 61.16 -60.96 59.15 -62.04 56.53 C-64.75 49.42 -63.01 42.43 -60.25 35.59 C-56.14 27.09 -48.83 19.22 -41 14 C-38.31 13.88 -38.31 13.88 -36 14 C-35.92 16.98 -35.86 19.96 -35.81 22.94 C-35.79 23.77 -35.76 24.6 -35.74 25.46 C-35.63 34.67 -38.75 41.94 -43 50 C-42.39 49.58 -41.77 49.16 -41.14 48.72 C-40.33 48.17 -39.52 47.63 -38.69 47.06 C-37.89 46.52 -37.09 45.97 -36.26 45.41 C-34 44 -34 44 -31 43 C-31.17 42.24 -31.33 41.47 -31.5 40.69 C-32.77 31.34 -32.65 24.81 -27 17 C-26.5 16.31 -26.01 15.62 -25.5 14.91 C-19.56 7.46 -9.9 0 0 0 Z " fill="#B79955" transform="translate(531,332)"/>
    </g>
    <g id="t16-web-layer-012" data-module="legs-shoes" data-component="legs-shoes" data-part="legs-shoes source layer 012" data-color-family="neutral" data-source-layer="012" inkscape:groupmode="layer" inkscape:label="012 · legs-shoes · legs-shoes source layer 012">
      <path id="t16-web-shape-012" d="M0 0 C0.33 0 0.66 0 1 0 C1.04 1.42 1.08 2.85 1.12 4.31 C1.38 6.8 1.38 6.8 2 9 C5.06 11.06 5.06 11.06 8 12 C7.44 18.7 6.72 25.35 5.75 32 C1.87 59.57 -0.97 87.32 -4 115 C-3.3 114.58 -2.6 114.16 -1.88 113.72 C-0.97 113.17 -0.06 112.63 0.88 112.06 C1.78 111.52 2.68 110.97 3.62 110.41 C7.93 107.86 11.38 107.78 16.31 107.75 C17.07 107.73 17.83 107.71 18.62 107.69 C23.35 107.65 26.19 108.2 30 111 C30.71 111.39 31.41 111.78 32.14 112.18 C43.18 118.75 49.64 129.83 53 142 C53 143.32 53 144.64 53 146 C29.57 146 6.14 146 -18 146 C-18.33 146.99 -18.66 147.98 -19 149 C-19 148.34 -19 147.68 -19 147 C-24.94 147 -30.88 147 -37 147 C-37 113.01 -37 79.02 -37 44 C-36.34 44 -35.68 44 -35 44 C-34.67 42.85 -34.34 41.69 -34 40.5 C-32.25 35.24 -29.79 30.4 -27.27 25.46 C-24.58 20.19 -22.01 14.87 -19.5 9.5 C-19.15 8.75 -18.8 8 -18.44 7.23 C-17.62 5.49 -16.81 3.74 -16 2 C-10.72 2 -5.44 2 0 2 C0 1.34 0 0.68 0 0 Z " fill="#C8C7C7" transform="translate(454,856)"/>
    </g>
    <g id="t16-web-layer-013" data-module="right-hand" data-component="right-hand" data-part="right-hand source layer 013" data-color-family="skin" data-source-layer="013" inkscape:groupmode="layer" inkscape:label="013 · right-hand · right-hand source layer 013">
      <path id="t16-web-shape-013" d="M0 0 C3 3 3 3 3.31 6.44 C3 10 3 10 1 14 C1.55 14.43 2.09 14.85 2.65 15.29 C13.41 24.21 20.62 35.47 24 49 C24.56 60.97 24.98 71.08 17.14 80.66 C14.57 85.91 17.57 92.43 19.06 97.75 C21 104.67 21 104.67 21 108 C21.66 108 22.32 108 23 108 C21.68 116.18 21.68 116.18 18.88 119.56 C14.82 121.59 12.5 121.74 8 121 C4.93 119.03 2.29 116.84 0 114 C0 113.01 0 112.02 0 111 C-1.65 111 -3.3 111 -5 111 C-5 110.34 -5 109.68 -5 109 C-4.34 109 -3.68 109 -3 109 C-3.41 108.2 -3.83 107.39 -4.25 106.56 C-5.6 103.82 -6.91 101.08 -8.19 98.31 C-8.53 97.57 -8.88 96.82 -9.23 96.05 C-10 94 -10 94 -10 91 C-10.66 91.47 -11.32 91.95 -12 92.44 C-17.82 95.47 -23.56 95.42 -29.77 93.77 C-36.06 91.59 -39.82 89 -42.94 83 C-44.46 79.69 -45.39 76.59 -46 73 C-46.64 73.29 -47.28 73.58 -47.94 73.88 C-53.11 76.1 -57.26 77.7 -63 77 C-63.99 76.34 -64.98 75.68 -66 75 C-68.29 60.83 -61.42 46.51 -53.67 35.02 C-50.64 30.85 -47.38 26.9 -44 23 C-43.7 22.65 -43.7 22.65 -42.2 20.89 C-32.61 10.51 -14.92 -1.79 0 0 Z " fill="#FBDCC2" transform="translate(929,770)"/>
    </g>
    <g id="t16-web-layer-014" data-module="clothing-body" data-component="clothing-body" data-part="clothing-body source layer 014" data-color-family="red" data-source-layer="014" inkscape:groupmode="layer" inkscape:label="014 · clothing-body · clothing-body source layer 014">
      <path id="t16-web-shape-014" d="M0 0 C-0.55 6.07 -1.9 11.25 -4.02 16.95 C-4.32 17.78 -4.62 18.6 -4.93 19.45 C-5.56 21.17 -6.2 22.9 -6.84 24.62 C-7.81 27.25 -8.77 29.89 -9.72 32.53 C-10.34 34.21 -10.96 35.9 -11.58 37.58 C-11.86 38.36 -12.15 39.15 -12.44 39.96 C-14.31 44.94 -16.14 48.57 -21 51 C-23.53 51.11 -26.05 51.16 -28.58 51.18 C-28.97 51.18 -28.97 51.18 -30.95 51.2 C-33.55 51.22 -36.14 51.23 -38.74 51.24 C-39.62 51.24 -40.51 51.25 -41.42 51.25 C-46.11 51.27 -50.8 51.29 -55.48 51.3 C-60.33 51.31 -65.17 51.34 -70.01 51.38 C-73.73 51.41 -77.45 51.41 -81.18 51.42 C-82.96 51.42 -84.75 51.43 -86.53 51.45 C-89.03 51.48 -91.53 51.48 -94.03 51.47 C-95.45 51.48 -96.87 51.48 -98.34 51.49 C-102.5 50.93 -104.17 50.05 -107 47 C-107.63 43.32 -107.63 43.32 -107.56 39.12 C-107.56 37.75 -107.57 36.37 -107.57 34.95 C-106.95 30.62 -105.68 28.4 -103 25 C-101.68 25.66 -100.36 26.32 -99 27 C-99 27.66 -99 28.32 -99 29 C-90.68 32.76 -82.48 33.32 -73.5 33.25 C-72.52 33.26 -71.54 33.27 -70.53 33.27 C-65.82 33.26 -61.49 33.01 -56.91 31.92 C-53 31 -53 31 -51 32 C-44.93 32.61 -41.15 31.21 -36 28 C-33.68 25.14 -32.24 22.94 -31.31 19.38 C-29.5 16.1 -27 15.5 -23.63 14.16 C-17.05 11.26 -11.13 6.92 -5.44 2.56 C-2 0 -2 0 0 0 Z " fill="#8B0820" transform="translate(434,796)"/>
    </g>
    <g id="t16-web-layer-015" data-module="ground-detail" data-component="ground-detail" data-part="ground-detail source layer 015" data-color-family="light-neutral" data-source-layer="015" inkscape:groupmode="layer" inkscape:label="015 · ground-detail · ground-detail source layer 015">
      <path id="t16-web-shape-015" d="M0 0 C1.47 -0.01 2.93 -0.02 4.44 -0.02 C8.49 0.38 10.22 1.03 13.44 3.38 C14.14 3.77 14.85 4.16 15.58 4.56 C26.62 11.12 33.07 22.2 36.44 34.38 C36.44 35.7 36.44 37.01 36.44 38.38 C13.01 38.38 -10.42 38.38 -34.56 38.38 C-30.38 21.65 -26.72 10.74 -11.84 1.73 C-7.73 0.03 -4.44 -0.02 0 0 Z " fill="#F5F3F3" transform="translate(470.5625,963.625)"/>
    </g>
    <g id="t16-web-layer-016" data-module="face-detail" data-component="face-detail" data-part="face-detail source layer 016" data-color-family="red" data-source-layer="016" inkscape:groupmode="layer" inkscape:label="016 · face-detail · face-detail source layer 016">
      <path id="t16-web-shape-016" d="M0 0 C0.62 0.68 1.24 1.36 1.88 2.06 C2.39 2.55 2.39 2.55 5 5 C5.62 5.59 6.25 6.18 6.89 6.79 C14.88 13.37 24.04 13.93 34 15 C34.33 22.63 33.11 29.44 31.44 36.88 C31.17 38.1 30.9 39.32 30.62 40.57 C29.76 44.39 28.88 48.19 28 52 C27.73 53.19 27.45 54.37 27.17 55.6 C22.61 75.22 16.37 93.63 6 111 C5.67 111 5.34 111 5 111 C5.07 109.76 5.14 108.53 5.22 107.25 C5.96 92.89 6.14 78.53 6.18 64.15 C6.18 61.99 6.19 59.82 6.21 57.65 C6.3 42.13 5.56 27.46 1.88 12.31 C0.87 8.14 0 4.33 0 0 Z " fill="#940921" transform="translate(751,444)"/>
    </g>
    <g id="t16-web-layer-017" data-module="face-detail" data-component="face-detail" data-part="face-detail source layer 017" data-color-family="red" data-source-layer="017" inkscape:groupmode="layer" inkscape:label="017 · face-detail · face-detail source layer 017">
      <path id="t16-web-shape-017" d="M0 0 C0.62 8.16 0.46 14.56 -5 21 C-9.08 24.75 -12.55 26.78 -18.06 27.62 C-24.26 26.64 -28.48 24.56 -32.88 20.06 C-36.12 15.39 -37.09 12.48 -37.04 6.83 C-37.04 5.92 -37.03 5.02 -37.02 4.09 C-37.02 3.4 -37.01 2.71 -37 2 C-24.65 0.8 -12.42 -0.39 0 0 Z " fill="#8C0C21" transform="translate(704,555)"/>
    </g>
    <g id="t16-web-layer-018" data-module="face-detail" data-component="face-detail" data-part="face-detail source layer 018" data-color-family="red" data-source-layer="018" inkscape:groupmode="layer" inkscape:label="018 · face-detail · face-detail source layer 018">
      <path id="t16-web-shape-018" d="M0 0 C1.36 -0.02 2.72 -0.04 4.12 -0.06 C4.51 -0.07 4.51 -0.07 6.45 -0.1 C9 0 9 0 11.62 0.47 C16.36 1.21 21.09 1.36 25.88 1.56 C26.36 1.58 26.36 1.58 28.83 1.69 C31.22 1.8 33.61 1.9 36 2 C37.03 13.47 37.03 13.47 33.44 18.44 C29.89 22.41 26.21 26.36 20.8 27.44 C15.23 27.73 11.56 26.33 7 23 C1.95 17.61 -0.27 13.67 -0.12 6.25 C-0.12 5.66 -0.12 5.66 -0.07 2.7 C-0.05 1.81 -0.02 0.92 0 0 Z " fill="#8B091F" transform="translate(537,555)"/>
    </g>
    <g id="t16-web-layer-019" data-module="fine-detail" data-component="fine-detail" data-part="fine-detail source layer 019" data-color-family="neutral" data-source-layer="019" inkscape:groupmode="layer" inkscape:label="019 · fine-detail · fine-detail source layer 019">
      <path id="t16-web-shape-019" d="M0 0 C1.32 0 2.64 0 4 0 C4 50.16 4 100.32 4 152 C2.68 152.33 1.36 152.66 0 153 C-1.76 151.24 -1.13 148.76 -1.13 146.38 C-1.13 145.16 -1.13 143.94 -1.14 142.68 C-1.13 141.32 -1.13 139.97 -1.13 138.58 C-1.13 137.16 -1.13 135.75 -1.13 134.29 C-1.14 130.4 -1.14 126.51 -1.13 122.61 C-1.13 118.54 -1.13 114.47 -1.14 110.4 C-1.14 103.56 -1.14 96.72 -1.13 89.88 C-1.12 81.97 -1.13 74.06 -1.13 66.16 C-1.14 59.37 -1.14 52.59 -1.13 45.8 C-1.13 41.75 -1.13 37.7 -1.14 33.64 C-1.14 29.12 -1.13 24.59 -1.13 20.07 C-1.13 18.73 -1.13 17.38 -1.14 16 C-1.13 14.77 -1.13 13.53 -1.13 12.26 C-1.13 11.19 -1.13 10.12 -1.13 9.02 C-1 5.94 -0.57 3.03 0 0 Z " fill="#D7D5D6" transform="translate(617,716)"/>
    </g>
    <g id="t16-web-layer-020" data-module="face-detail" data-component="face-detail" data-part="face-detail source layer 020" data-color-family="detail" data-source-layer="020" inkscape:groupmode="layer" inkscape:label="020 · face-detail · face-detail source layer 020">
      <path id="t16-web-shape-020" d="M0 0 C2.36 1.19 4.53 2.44 6.7 3.95 C7.19 4.28 7.19 4.28 9.7 5.95 C12.7 12.06 12.7 12.06 12.7 15.95 C8.11 14.5 3.73 12.74 -0.68 10.83 C-1.3 10.56 -1.3 10.56 -4.45 9.2 C-5.39 8.79 -6.34 8.38 -7.3 7.95 C-7.3 8.61 -7.3 9.27 -7.3 9.95 C-6.67 10.04 -6.03 10.12 -5.37 10.2 C0.74 11.7 6.43 14.55 11.7 17.95 C11.37 18.61 11.04 19.27 10.7 19.95 C4.94 21.87 -1.38 22.11 -7.07 19.86 C-12.59 16.68 -17.11 12.72 -21.3 7.95 C-21.62 7.59 -21.62 7.59 -23.24 5.77 C-24.3 3.95 -24.3 3.95 -24.3 -0.05 C-17.16 -2.43 -7.19 -2.28 0 0 Z " fill="#BEA05A" transform="translate(677.3046875,340.046875)"/>
    </g>
    <g id="t16-web-layer-021" data-module="face-detail" data-component="face-detail" data-part="face-detail source layer 021" data-color-family="red" data-source-layer="021" inkscape:groupmode="layer" inkscape:label="021 · face-detail · face-detail source layer 021">
      <path id="t16-web-shape-021" d="M0 0 C1.03 0.01 2.07 0.02 3.13 0.03 C3.51 0.03 3.51 0.03 5.44 0.06 C5.44 2.37 5.44 4.68 5.44 7.06 C-2.11 7.94 -9.65 8.81 -17.19 9.67 C-20.13 10.01 -23.08 10.36 -26.02 10.71 C-27.57 10.89 -29.13 11.07 -30.69 11.25 C-32.03 11.41 -33.37 11.57 -34.76 11.73 C-38.72 12.08 -42.59 12.19 -46.56 12.06 C-47.56 11.06 -47.56 11.06 -47.62 7.5 C-47.6 6.37 -47.58 5.23 -47.56 4.06 C-46.64 3.98 -45.72 3.89 -44.77 3.8 C-41.31 3.48 -37.85 3.16 -34.39 2.84 C-32.17 2.63 -29.95 2.42 -27.73 2.22 C-15.64 1.09 -15.64 1.09 -10.44 0.47 C-6.92 0.1 -3.53 -0.04 0 0 Z " fill="#991729" transform="translate(706.5625,538.9375)"/>
    </g>
    <g id="t16-web-layer-022" data-module="face-detail" data-component="face-detail" data-part="face-detail source layer 022" data-color-family="red" data-source-layer="022" inkscape:groupmode="layer" inkscape:label="022 · face-detail · face-detail source layer 022">
      <path id="t16-web-shape-022" d="M0 0 C9.43 0.4 18.81 0.88 28.19 2 C36.45 2.98 44.69 3.57 53 4 C52.67 6.64 52.34 9.28 52 12 C47.21 12.19 42.85 11.87 38.12 11.06 C32.77 10.18 27.48 9.74 22.06 9.5 C14.29 9.15 6.68 8.27 -1 7 C-0.67 4.69 -0.34 2.38 0 0 Z " fill="#971325" transform="translate(529,539)"/>
    </g>
    <g id="t16-web-layer-023" data-module="face-detail" data-component="face-detail" data-part="face-detail source layer 023" data-color-family="detail" data-source-layer="023" inkscape:groupmode="layer" inkscape:label="023 · face-detail · face-detail source layer 023">
      <path id="t16-web-shape-023" d="M0 0 C0.66 0.66 1.32 1.32 2 2 C-3.58 13.72 -10.81 23.58 -22.88 29.05 C-27.94 30.59 -32.77 30.5 -38 30 C-37.01 29.01 -36.02 28.02 -35 27 C-34.88 26.61 -34.88 26.61 -34.3 24.64 C-32.35 20.67 -28.92 18.97 -25.25 16.75 C-23.71 15.79 -22.17 14.83 -20.64 13.87 C-19.86 13.39 -19.09 12.92 -18.29 12.43 C-16.12 11.07 -13.97 9.69 -11.83 8.29 C-11.19 7.87 -10.56 7.45 -9.9 7.02 C-9.29 6.62 -8.69 6.22 -8.06 5.81 C-2.25 2 -2.25 2 0 2 C0 1.34 0 0.68 0 0 Z " fill="#AE8F4C" transform="translate(477,429)"/>
    </g>
    <g id="t16-web-layer-024" data-module="fine-detail" data-component="fine-detail" data-part="fine-detail source layer 024" data-color-family="neutral" data-source-layer="024" inkscape:groupmode="layer" inkscape:label="024 · fine-detail · fine-detail source layer 024">
      <path id="t16-web-shape-024" d="M0 0 C2 0 2 0 4 1.75 C6.5 5.81 6.8 9.31 7.43 13.98 C8.22 18.18 9.93 21.28 12 25 C12 25.66 12 26.32 12 27 C6.73 29.96 3.2 31.73 -3 31 C-3.99 30.34 -4.98 29.68 -6 29 C-7.67 18.65 -4.23 9.27 0 0 Z " fill="#D0CFCE" transform="translate(869,816)"/>
    </g>
    <g id="t16-web-layer-025" data-module="face-detail" data-component="face-detail" data-part="face-detail source layer 025" data-color-family="detail" data-source-layer="025" inkscape:groupmode="layer" inkscape:label="025 · face-detail · face-detail source layer 025">
      <path id="t16-web-shape-025" d="M0 0 C0.99 0.33 1.98 0.66 3 1 C2.52 1.93 2.03 2.87 1.53 3.83 C-3.18 13.07 -7.39 22.42 -11.34 32.02 C-12.46 34.72 -13.69 37.38 -15 40 C-17 39 -17 39 -18.19 35.62 C-19.74 28.56 -19.45 21.67 -15.56 15.44 C-11.5 9.97 -6.16 3.08 0 0 Z " fill="#C4A864" transform="translate(489,347)"/>
    </g>
    <g id="t16-web-layer-026" data-module="face-detail" data-component="face-detail" data-part="face-detail source layer 026" data-color-family="detail" data-source-layer="026" inkscape:groupmode="layer" inkscape:label="026 · face-detail · face-detail source layer 026">
      <path id="t16-web-shape-026" d="M0 0 C0.95 -0.01 1.9 -0.02 2.88 -0.04 C3.79 -0.03 4.7 -0.03 5.64 -0.02 C6.05 -0.02 6.05 -0.02 8.14 -0.01 C10.31 0.38 10.31 0.38 13.31 3.38 C6.46 6.21 -0.45 8.71 -7.5 11 C-9.32 11.59 -11.14 12.19 -12.96 12.79 C-13.79 13.06 -14.62 13.34 -15.48 13.62 C-17.2 14.21 -18.9 14.88 -20.57 15.59 C-22.69 16.38 -22.69 16.38 -26.69 16.38 C-25.37 12.52 -23.83 10.11 -20.94 7.25 C-20.28 6.59 -19.63 5.92 -18.95 5.24 C-12.85 0.21 -7.61 -0.09 0 0 Z " fill="#C4A863" transform="translate(482.6875,404.625)"/>
    </g>
    <g id="t16-web-layer-027" data-module="face-detail" data-component="face-detail" data-part="face-detail source layer 027" data-color-family="detail" data-source-layer="027" inkscape:groupmode="layer" inkscape:label="027 · face-detail · face-detail source layer 027">
      <path id="t16-web-shape-027" d="M0 0 C2.59 2.59 2.37 4.03 2.62 7.62 C2.7 8.63 2.77 9.63 2.85 10.66 C2.9 11.43 2.95 12.21 3 13 C2.34 13 1.68 13 1 13 C0.78 13.66 0.78 13.66 -0.31 17 C-1.77 21.38 -3.35 25.69 -5 30 C-5.66 30 -6.32 30 -7 30 C-7.38 26.34 -7.71 22.67 -8 19 C-8.08 18.18 -8.16 17.36 -8.24 16.51 C-8.49 12.25 -8.02 9.44 -5.69 5.94 C-4.8 4.97 -3.91 4 -3 3 C-2.01 3 -1.02 3 0 3 C0 2.01 0 1.02 0 0 Z M3 9 C3.33 9.17 3.33 9.17 5 10 C4.67 10.17 4.67 10.17 3 11 C3 10.34 3 9.68 3 9 Z " fill="#C3A65E" transform="translate(441,424)"/>
    </g>
    <g id="t16-web-layer-028" data-module="face-detail" data-component="face-detail" data-part="face-detail source layer 028" data-color-family="detail" data-source-layer="028" inkscape:groupmode="layer" inkscape:label="028 · face-detail · face-detail source layer 028">
      <path id="t16-web-shape-028" d="M0 0 C0.33 0 0.66 0 1 0 C1.66 10.61 -3.21 18.21 -10 26 C-10.99 26.33 -11.98 26.66 -13 27 C-12.71 23.99 -12.38 21 -12 18 C-11.91 17.21 -11.82 16.42 -11.73 15.61 C-10.72 9.11 -8.25 6.87 -3 3 C-2.01 2.01 -1.02 1.02 0 0 Z " fill="#C3A55D" transform="translate(463,393)"/>
    </g>
    <g id="t16-web-layer-029" data-module="face-detail" data-component="face-detail" data-part="face-detail source layer 029" data-color-family="detail" data-source-layer="029" inkscape:groupmode="layer" inkscape:label="029 · face-detail · face-detail source layer 029">
      <path id="t16-web-shape-029" d="M0 0 C4.42 2.21 5.41 3.94 8 8 C8.66 8.33 9.32 8.66 10 9 C10.64 12.03 11.17 15 11.62 18.06 C11.76 18.92 11.89 19.77 12.03 20.65 C12.36 22.77 12.68 24.88 13 27 C12.01 27 11.02 27 10 27 C7.32 23.92 5.2 20.44 3 17 C2.36 16.03 1.72 15.06 1.06 14.06 C-0.55 9.42 -0.23 4.87 0 0 Z " fill="#CAAF66" transform="translate(760,392)"/>
    </g>
    <g id="t16-web-layer-030" data-module="face-detail" data-component="face-detail" data-part="face-detail source layer 030" data-color-family="detail" data-source-layer="030" inkscape:groupmode="layer" inkscape:label="030 · face-detail · face-detail source layer 030">
      <path id="t16-web-shape-030" d="M0 0 C5.23 0.33 7.83 0.78 11.53 4.63 C15 9.22 18.07 13.54 20 19 C11.31 15.31 4.66 11.73 -1 4 C-0.67 2.68 -0.34 1.36 0 0 Z " fill="#C2A760" transform="translate(701,353)"/>
    </g>
    <g id="t16-web-layer-031" data-module="face-detail" data-component="face-detail" data-part="face-detail source layer 031" data-color-family="detail" data-source-layer="031" inkscape:groupmode="layer" inkscape:label="031 · face-detail · face-detail source layer 031">
      <path id="t16-web-shape-031" d="M0 0 C1 4.01 1.5 7.9 2 12 C2.31 13.67 2.64 15.34 3 17 C5.29 13.57 6.5 10.14 7.9 6.28 C9 4 9 4 12 2 C11.19 7.54 8.64 12.08 6.18 17.04 C5 20 5 20 6 23 C6.33 24.32 6.66 25.64 7 27 C4.84 29.51 2.98 31.51 0 33 C-0.66 32.67 -1.32 32.34 -2 32 C-1.34 30.68 -0.68 29.36 0 28 C1 25 1 25 -0.44 21.44 C-3.32 14.24 -2.51 7.22 0 0 Z " fill="#AA8145" transform="translate(470,369)"/>
    </g>
    <g id="t16-web-layer-032" data-module="face-detail" data-component="face-detail" data-part="face-detail source layer 032" data-color-family="red" data-source-layer="032" inkscape:groupmode="layer" inkscape:label="032 · face-detail · face-detail source layer 032">
      <path id="t16-web-shape-032" d="M0 0 C0.69 0.36 1.39 0.72 2.11 1.09 C12.7 5.93 22.62 5.48 34 5 C34.83 6.81 34.83 6.81 39 16 C35.4 16 34.24 15.06 31.25 13.12 C23.39 8.34 17.41 7.82 8.3 8.32 C4.29 7.93 2.72 6.94 0 4 C0 2.68 0 1.36 0 0 Z " fill="#87171B" transform="translate(738,422)"/>
    </g>
    <g id="t16-web-layer-033" data-module="face-detail" data-component="face-detail" data-part="face-detail source layer 033" data-color-family="detail" data-source-layer="033" inkscape:groupmode="layer" inkscape:label="033 · face-detail · face-detail source layer 033">
      <path id="t16-web-shape-033" d="M0 0 C1.32 0.66 2.64 1.32 4 2 C4 2.66 4 3.32 4 4 C4.66 4 5.32 4 6 4 C6 4.66 6 5.32 6 6 C6.66 6 7.32 6 8 6 C8 11.94 8 17.88 8 24 C7.34 24.33 6.68 24.66 6 25 C1.38 16.81 -2.14 10.52 -1 1 C-0.67 0.67 -0.34 0.34 0 0 Z " fill="#CCB069" transform="translate(780,427)"/>
    </g>
    <g id="t16-web-layer-034" data-module="face-detail" data-component="face-detail" data-part="face-detail source layer 034" data-color-family="red" data-source-layer="034" inkscape:groupmode="layer" inkscape:label="034 · face-detail · face-detail source layer 034">
      <path id="t16-web-shape-034" d="M0 0 C4 1 4 1 7.81 2.5 C14.33 4.74 21.17 4.74 28 5 C27.01 6.32 26.02 7.64 25 9 C24.61 8.92 24.61 8.92 22.66 8.52 C17.92 7.85 13.28 7.78 8.5 7.75 C7.58 7.73 6.65 7.71 5.7 7.69 C0.25 7.66 -3.18 8.22 -8 11 C-8.66 10.67 -9.32 10.34 -10 10 C-8.43 8.3 -6.85 6.61 -5.25 4.94 C-4.37 4 -3.49 3.06 -2.58 2.09 C-2.15 1.75 -2.15 1.75 0 0 Z " fill="#8D211F" transform="translate(474,398)"/>
    </g>
    <g id="t16-web-layer-035" data-module="face-detail" data-component="face-detail" data-part="face-detail source layer 035" data-color-family="red" data-source-layer="035" inkscape:groupmode="layer" inkscape:label="035 · face-detail · face-detail source layer 035">
      <path id="t16-web-shape-035" d="M0 0 C0.33 0 0.66 0 1 0 C1.33 3.3 1.66 6.6 2 10 C2.66 10 3.32 10 4 10 C4.95 15.78 5.59 21.15 5 27 C2.25 30.59 -0.78 32.44 -5 34 C-5.99 34 -6.98 34 -8 34 C-7.58 33.19 -7.16 32.38 -6.72 31.55 C-6.17 30.48 -5.63 29.41 -5.06 28.31 C-4.52 27.26 -3.97 26.2 -3.41 25.11 C-0.91 19.59 -0.74 14.18 -0.44 8.19 C-0.42 7.79 -0.42 7.79 -0.31 5.8 C-0.2 3.87 -0.1 1.93 0 0 Z " fill="#881720" transform="translate(495,348)"/>
    </g>
    <g id="t16-web-layer-036" data-module="held-prop" data-component="held-prop" data-part="held-prop source layer 036" data-color-family="neutral" data-source-layer="036" inkscape:groupmode="layer" inkscape:label="036 · held-prop · held-prop source layer 036">
      <path id="t16-web-shape-036" d="M0 0 C3 3 3 3 3.31 6.5 C3 10 3 10 1 13 C-2.78 11.66 -5.66 9.97 -8.81 7.5 C-9.6 6.89 -10.39 6.28 -11.21 5.66 C-11.8 5.11 -12.39 4.56 -13 4 C-13 3.34 -13 2.68 -13 2 C-8.51 0.25 -4.82 -0.45 0 0 Z " fill="#D3D0CF" transform="translate(929,770)"/>
    </g>
    <g id="t16-web-layer-037" data-module="face-detail" data-component="face-detail" data-part="face-detail source layer 037" data-color-family="detail" data-source-layer="037" inkscape:groupmode="layer" inkscape:label="037 · face-detail · face-detail source layer 037">
      <path id="t16-web-shape-037" d="M0 0 C4.55 3.07 6.03 5.94 8 11 C8.66 11.66 9.32 12.32 10 13 C10.33 13.99 10.66 14.98 11 16 C9.99 15.83 8.98 15.67 7.94 15.5 C1.33 14.65 -5.35 14.92 -12 15 C-12 14.67 -12 14.34 -12 14 C-7.71 13.34 -3.42 12.68 1 12 C-2.02 9.74 -4.1 8.37 -7.44 6.94 C-8.22 6.6 -9 6.26 -9.8 5.92 C-12.19 4.92 -14.59 3.93 -17 3 C-17 2.34 -17 1.68 -17 1 C-12.3 1.65 -8.45 3.52 -4.19 5.56 C-3.49 5.89 -2.8 6.22 -2.09 6.56 C-0.39 7.37 1.31 8.18 3 9 C2.5 8.07 2.01 7.14 1.5 6.19 C0 3 0 3 0 0 Z " fill="#A37D42" transform="translate(687,347)"/>
    </g>
    <g id="t16-web-layer-038" data-module="face-detail" data-component="face-detail" data-part="face-detail source layer 038" data-color-family="red" data-source-layer="038" inkscape:groupmode="layer" inkscape:label="038 · face-detail · face-detail source layer 038">
      <path id="t16-web-shape-038" d="M0 0 C0.86 0.16 1.71 0.32 2.6 0.49 C10.3 1.64 18.35 1.42 26 0 C25.67 0.99 25.34 1.98 25 3 C24.15 3.11 23.31 3.22 22.44 3.33 C12.06 4.78 4.82 7.37 -4 13 C-4.66 13 -5.32 13 -6 13 C-4.6 8.23 -2.55 4.25 0 0 Z " fill="#87191C" transform="translate(452,426)"/>
    </g>
    <g id="t16-web-layer-039" data-module="face-detail" data-component="face-detail" data-part="face-detail source layer 039" data-color-family="red" data-source-layer="039" inkscape:groupmode="layer" inkscape:label="039 · face-detail · face-detail source layer 039">
      <path id="t16-web-shape-039" d="M0 0 C1.67 1.33 3.34 2.66 5 4 C9.36 6.22 13.47 6.39 18.31 6.62 C19.03 6.66 19.03 6.66 22.68 6.85 C23.77 6.9 24.87 6.95 26 7 C26 7.33 26 7.66 26 8 C24.51 8.17 24.51 8.17 17 9 C17.33 9.99 17.66 10.98 18 12 C17.24 11.73 16.47 11.46 15.69 11.19 C15.08 10.99 15.08 10.99 12 10 C11.23 9.74 10.47 9.47 9.68 9.2 C1.76 6.7 -5.74 6.7 -14 7 C-5.76 -1.44 -5.76 -1.44 0 0 Z " fill="#861F20" transform="translate(506,377)"/>
    </g>
    <g id="t16-web-layer-040" data-module="face-detail" data-component="face-detail" data-part="face-detail source layer 040" data-color-family="detail" data-source-layer="040" inkscape:groupmode="layer" inkscape:label="040 · face-detail · face-detail source layer 040">
      <path id="t16-web-shape-040" d="M0 0 C8.82 -0.55 13.34 1.25 20.5 6.62 C20.91 7.02 20.91 7.02 23 9 C23 9.66 23 10.32 23 11 C14.11 10.19 8.03 8.65 1 3 C0.67 2.01 0.34 1.02 0 0 Z " fill="#D8BE7F" transform="translate(721,383)"/>
    </g>
    <g id="t16-web-layer-041" data-module="face-detail" data-component="face-detail" data-part="face-detail source layer 041" data-color-family="red" data-source-layer="041" inkscape:groupmode="layer" inkscape:label="041 · face-detail · face-detail source layer 041">
      <path id="t16-web-shape-041" d="M0 0 C4.11 1.45 7.47 3.45 11 6 C11 6.33 11 6.66 11 7 C10.03 7.04 9.07 7.07 8.07 7.11 C0.23 7.51 -6.61 8.41 -14 11 C-15.32 11.33 -16.64 11.66 -18 12 C-18 11.01 -18 10.02 -18 9 C-20.97 9 -23.94 9 -27 9 C-27 8.67 -27 8.34 -27 8 C-25.94 7.97 -24.88 7.95 -23.78 7.92 C-13.92 7.53 -7.19 7.19 0 0 Z " fill="#871B1E" transform="translate(719,376)"/>
    </g>
    <g id="t16-web-layer-042" data-module="face-detail" data-component="face-detail" data-part="face-detail source layer 042" data-color-family="red" data-source-layer="042" inkscape:groupmode="layer" inkscape:label="042 · face-detail · face-detail source layer 042">
      <path id="t16-web-shape-042" d="M0 0 C2.16 2.24 4.06 4.56 6 7 C5.67 7.17 5.67 7.17 4 8 C3 7.53 1.99 7.05 0.96 6.57 C-3.76 4.7 -7.33 4.72 -12.31 4.94 C-15.23 5.05 -18.08 5.07 -21 5 C-21.66 4.34 -22.32 3.68 -23 3 C-4.91 -3.32 -4.91 -3.32 0 0 Z " fill="#8F2922" transform="translate(752,400)"/>
    </g>
    <g id="t16-web-layer-043" data-module="face-detail" data-component="face-detail" data-part="face-detail source layer 043" data-color-family="detail" data-source-layer="043" inkscape:groupmode="layer" inkscape:label="043 · face-detail · face-detail source layer 043">
      <path id="t16-web-shape-043" d="M0 0 C0 0.66 0 1.32 0 2 C-1.96 3.38 -3.97 4.71 -6 6 C-6.61 6.52 -7.22 7.05 -7.84 7.59 C-10.55 9.36 -12.53 9.5 -15.75 9.69 C-16.73 9.75 -17.72 9.82 -18.73 9.89 C-19.48 9.92 -20.23 9.96 -21 10 C-18.96 4.89 -15.4 3.17 -10.65 0.94 C-6.88 -0.4 -3.97 -0.37 0 0 Z " fill="#D0B66E" transform="translate(501,384)"/>
    </g>
    <g id="t16-web-layer-044" data-module="fine-detail" data-component="fine-detail" data-part="fine-detail source layer 044" data-color-family="red" data-source-layer="044" inkscape:groupmode="layer" inkscape:label="044 · fine-detail · fine-detail source layer 044">
      <path id="t16-web-shape-044" d="M0 0 C1.3 3.89 0.39 5.15 -1.19 8.88 C-1.61 9.9 -2.04 10.93 -2.48 11.99 C-4.03 15.06 -5.66 17.48 -8 20 C-10.62 20.5 -10.62 20.5 -13 20 C-13.66 19.01 -14.32 18.02 -15 17 C-14.39 16.4 -13.77 15.79 -13.14 15.17 C-12.33 14.37 -11.52 13.57 -10.69 12.75 C-9.89 11.96 -9.09 11.17 -8.26 10.36 C-6 8 -6 8 -4.33 5.7 C-3.89 5.14 -3.45 4.58 -3 4 C-2.34 4 -1.68 4 -1 4 C-0.67 2.68 -0.34 1.36 0 0 Z " fill="#770A1D" transform="translate(490,747)"/>
    </g>
    <g id="t16-web-layer-045" data-module="face-detail" data-component="face-detail" data-part="face-detail source layer 045" data-color-family="red" data-source-layer="045" inkscape:groupmode="layer" inkscape:label="045 · face-detail · face-detail source layer 045">
      <path id="t16-web-shape-045" d="M0 0 C3.38 1.13 4.11 2.05 6.31 4.75 C9.3 8.29 12.4 11.11 16 14 C16 14.33 16 14.66 16 15 C11.45 15.41 8.68 14.11 4.69 12 C3.62 11.44 2.55 10.89 1.45 10.31 C1.05 10.1 1.05 10.1 -1 9 C-1.12 2.25 -1.12 2.25 0 0 Z " fill="#6B0817" transform="translate(491,602)"/>
    </g>
    <g id="t16-web-layer-046" data-module="face-detail" data-component="face-detail" data-part="face-detail source layer 046" data-color-family="red" data-source-layer="046" inkscape:groupmode="layer" inkscape:label="046 · face-detail · face-detail source layer 046">
      <path id="t16-web-shape-046" d="M0 0 C0.33 0 0.66 0 1 0 C1.04 0.93 1.07 1.86 1.11 2.82 C1.61 12.19 2.65 18.77 9 26 C7.55 29.79 5.85 33.39 4 37 C3.67 37 3.34 37 3 37 C2.88 36.17 2.76 35.33 2.63 34.47 C1.1 24.2 1.1 24.2 -0.19 19.62 C-1.74 13.21 -0.63 6.5 0 0 Z " fill="#8C1E23" transform="translate(440,398)"/>
    </g>
    <g id="t16-web-layer-047" data-module="face-detail" data-component="face-detail" data-part="face-detail source layer 047" data-color-family="detail" data-source-layer="047" inkscape:groupmode="layer" inkscape:label="047 · face-detail · face-detail source layer 047">
      <path id="t16-web-shape-047" d="M0 0 C-1.25 3.65 -1.67 4.78 -5 7 C-10.03 7.99 -14.89 8.09 -20 8 C-17.27 5.27 -15.45 4.04 -12.06 2.38 C-11.21 1.95 -10.35 1.52 -9.47 1.09 C-5.89 -0.49 -3.78 -1.26 0 0 Z " fill="#D6C17C" transform="translate(528,366)"/>
    </g>
    <g id="t16-web-layer-048" data-module="face-detail" data-component="face-detail" data-part="face-detail source layer 048" data-color-family="red" data-source-layer="048" inkscape:groupmode="layer" inkscape:label="048 · face-detail · face-detail source layer 048">
      <path id="t16-web-shape-048" d="M0 0 C6.27 0 12.54 0 19 0 C19 1.32 19 2.64 19 4 C12.73 4 6.46 4 0 4 C0 2.68 0 1.36 0 0 Z " fill="#A62733" transform="translate(611,601)"/>
    </g>
    <g id="t16-web-layer-049" data-module="ground-detail" data-component="ground-detail" data-part="ground-detail source layer 049" data-color-family="neutral" data-source-layer="049" inkscape:groupmode="layer" inkscape:label="049 · ground-detail · ground-detail source layer 049">
      <path id="t16-web-shape-049" d="M0 0 C0.33 0.16 0.33 0.16 2 1 C2.39 3.25 2.39 3.25 2.6 6.21 C2.68 7.27 2.76 8.33 2.84 9.42 C2.91 10.54 2.99 11.66 3.06 12.81 C3.22 15.01 3.37 17.2 3.54 19.39 C3.6 20.37 3.67 21.35 3.73 22.36 C4 25 4 25 5 29 C5.08 30.51 5.11 32.03 5.1 33.55 C5.09 34.39 5.09 35.24 5.09 36.11 C5.08 36.98 5.07 37.85 5.06 38.75 C5.06 39.64 5.05 40.53 5.05 41.44 C5.04 43.63 5.02 45.81 5 48 C4.67 48 4.34 48 4 48 C3.42 42.77 2.85 37.54 2.29 32.31 C2.1 30.54 1.9 28.76 1.71 26.99 C-0.29 8.84 -0.29 8.84 0 0 Z " fill="#CBBFC1" transform="translate(767,882)"/>
    </g>
    <g id="t16-web-layer-050" data-module="fine-detail" data-component="fine-detail" data-part="fine-detail source layer 050" data-color-family="light-neutral" data-source-layer="050" inkscape:groupmode="layer" inkscape:label="050 · fine-detail · fine-detail source layer 050">
      <path id="t16-web-shape-050" d="M0 0 C5.06 1.53 8.18 4.48 12 8 C12 8.33 12 8.66 12 9 C9.75 9.23 7.51 9.46 5.26 9.68 C3 10 3 10 0 11 C-0.19 9.35 -0.38 7.71 -0.56 6.06 C-0.67 5.15 -0.77 4.23 -0.88 3.29 C-0.92 2.53 -0.96 1.78 -1 1 C-0.67 0.67 -0.34 0.34 0 0 Z " fill="#F6EFEF" transform="translate(786,786)"/>
    </g>
    <g id="t16-web-layer-051" data-module="face-detail" data-component="face-detail" data-part="face-detail source layer 051" data-color-family="red" data-source-layer="051" inkscape:groupmode="layer" inkscape:label="051 · face-detail · face-detail source layer 051">
      <path id="t16-web-shape-051" d="M0 0 C1.15 0.66 1.15 0.66 7 4 C5.95 8.18 4.54 11.98 3 16 C2.34 15.67 1.68 15.34 1 15 C-0.02 9.98 -0.09 5.11 0 0 Z " fill="#81141F" transform="translate(427,454)"/>
    </g>
  </g>
</svg>
